<?xml version="1.0" encoding="UTF-8"?>
<svg xmlns="http://www.w3.org/2000/svg" xmlns:xlink="http://www.w3.org/1999/xlink" width="600" height="600" viewBox="0 0 600 600">
<defs>
<g>
<g id="glyph-273357-0-0">
<path d="M 10.421875 0 L 7.46875 0 L 7.46875 -13.265625 C 7.46875 -13.734375 7.472656 -14.164062 7.484375 -14.5625 C 7.492188 -14.96875 7.507812 -15.359375 7.53125 -15.734375 C 7.550781 -16.117188 7.570312 -16.492188 7.59375 -16.859375 C 7.351562 -16.617188 7.097656 -16.382812 6.828125 -16.15625 C 6.566406 -15.925781 6.269531 -15.664062 5.9375 -15.375 L 3.75 -13.609375 L 2.25 -15.515625 L 7.953125 -20 L 10.421875 -20 Z M 10.421875 0 "/>
</g>
<g id="glyph-273357-0-1">
<path d="M 14.71875 0 L 1.28125 0 L 1.28125 -2.3125 L 6.453125 -7.53125 C 7.453125 -8.550781 8.285156 -9.441406 8.953125 -10.203125 C 9.628906 -10.960938 10.132812 -11.691406 10.46875 -12.390625 C 10.800781 -13.085938 10.96875 -13.851562 10.96875 -14.6875 C 10.96875 -15.695312 10.671875 -16.457031 10.078125 -16.96875 C 9.484375 -17.488281 8.710938 -17.75 7.765625 -17.75 C 6.847656 -17.75 6.019531 -17.578125 5.28125 -17.234375 C 4.550781 -16.890625 3.800781 -16.414062 3.03125 -15.8125 L 1.421875 -17.765625 C 1.960938 -18.234375 2.546875 -18.65625 3.171875 -19.03125 C 3.804688 -19.40625 4.507812 -19.703125 5.28125 -19.921875 C 6.050781 -20.148438 6.90625 -20.265625 7.84375 -20.265625 C 9.113281 -20.265625 10.203125 -20.039062 11.109375 -19.59375 C 12.023438 -19.15625 12.734375 -18.535156 13.234375 -17.734375 C 13.734375 -16.941406 13.984375 -16.003906 13.984375 -14.921875 C 13.984375 -13.859375 13.765625 -12.867188 13.328125 -11.953125 C 12.898438 -11.046875 12.289062 -10.144531 11.5 -9.25 C 10.71875 -8.363281 9.789062 -7.40625 8.71875 -6.375 L 5.015625 -2.765625 L 5.015625 -2.625 L 14.71875 -2.625 Z M 14.71875 0 "/>
</g>
<g id="glyph-273357-0-2">
<path d="M 13.953125 -15.375 C 13.953125 -14.46875 13.773438 -13.6875 13.421875 -13.03125 C 13.078125 -12.375 12.585938 -11.835938 11.953125 -11.421875 C 11.328125 -11.003906 10.597656 -10.707031 9.765625 -10.53125 L 9.765625 -10.421875 C 11.367188 -10.234375 12.566406 -9.734375 13.359375 -8.921875 C 14.160156 -8.117188 14.5625 -7.050781 14.5625 -5.71875 C 14.5625 -4.5625 14.285156 -3.523438 13.734375 -2.609375 C 13.179688 -1.703125 12.332031 -0.992188 11.1875 -0.484375 C 10.039062 0.0234375 8.566406 0.28125 6.765625 0.28125 C 5.710938 0.28125 4.726562 0.195312 3.8125 0.03125 C 2.894531 -0.132812 2.023438 -0.414062 1.203125 -0.8125 L 1.203125 -3.484375 C 2.046875 -3.066406 2.945312 -2.742188 3.90625 -2.515625 C 4.875 -2.285156 5.789062 -2.171875 6.65625 -2.171875 C 8.363281 -2.171875 9.585938 -2.492188 10.328125 -3.140625 C 11.066406 -3.785156 11.4375 -4.6875 11.4375 -5.84375 C 11.4375 -6.59375 11.238281 -7.207031 10.84375 -7.6875 C 10.457031 -8.164062 9.863281 -8.519531 9.0625 -8.75 C 8.269531 -8.976562 7.273438 -9.09375 6.078125 -9.09375 L 4.265625 -9.09375 L 4.265625 -11.53125 L 6.09375 -11.53125 C 7.238281 -11.53125 8.164062 -11.675781 8.875 -11.96875 C 9.582031 -12.257812 10.101562 -12.664062 10.4375 -13.1875 C 10.78125 -13.707031 10.953125 -14.304688 10.953125 -14.984375 C 10.953125 -15.878906 10.65625 -16.570312 10.0625 -17.0625 C 9.476562 -17.550781 8.640625 -17.796875 7.546875 -17.796875 C 6.859375 -17.796875 6.234375 -17.722656 5.671875 -17.578125 C 5.109375 -17.441406 4.585938 -17.25 4.109375 -17 C 3.640625 -16.757812 3.179688 -16.488281 2.734375 -16.1875 L 1.296875 -18.234375 C 2.023438 -18.796875 2.914062 -19.273438 3.96875 -19.671875 C 5.019531 -20.066406 6.234375 -20.265625 7.609375 -20.265625 C 9.691406 -20.265625 11.269531 -19.8125 12.34375 -18.90625 C 13.414062 -18.007812 13.953125 -16.832031 13.953125 -15.375 Z M 13.953125 -15.375 "/>
</g>
<g id="glyph-273357-0-3">
<path d="M 15.484375 -4.421875 L 12.71875 -4.421875 L 12.71875 0 L 9.828125 0 L 9.828125 -4.421875 L 0.5625 -4.421875 L 0.5625 -6.765625 L 9.765625 -20.078125 L 12.71875 -20.078125 L 12.71875 -6.953125 L 15.484375 -6.953125 Z M 9.828125 -12.390625 C 9.828125 -12.828125 9.832031 -13.25 9.84375 -13.65625 C 9.851562 -14.070312 9.863281 -14.46875 9.875 -14.84375 C 9.894531 -15.226562 9.910156 -15.582031 9.921875 -15.90625 C 9.941406 -16.238281 9.957031 -16.53125 9.96875 -16.78125 L 9.859375 -16.78125 C 9.703125 -16.425781 9.515625 -16.050781 9.296875 -15.65625 C 9.085938 -15.257812 8.875 -14.910156 8.65625 -14.609375 L 3.34375 -6.953125 L 9.828125 -6.953125 Z M 9.828125 -12.390625 "/>
</g>
<g id="glyph-273357-0-4">
<path d="M 7.90625 -12.40625 C 9.226562 -12.40625 10.382812 -12.171875 11.375 -11.703125 C 12.363281 -11.242188 13.132812 -10.578125 13.6875 -9.703125 C 14.238281 -8.828125 14.515625 -7.75 14.515625 -6.46875 C 14.515625 -5.070312 14.210938 -3.867188 13.609375 -2.859375 C 13.015625 -1.847656 12.148438 -1.070312 11.015625 -0.53125 C 9.890625 0.0078125 8.515625 0.28125 6.890625 0.28125 C 5.859375 0.28125 4.882812 0.1875 3.96875 0 C 3.0625 -0.1875 2.289062 -0.457031 1.65625 -0.8125 L 1.65625 -3.53125 C 2.332031 -3.132812 3.148438 -2.816406 4.109375 -2.578125 C 5.078125 -2.335938 5.992188 -2.21875 6.859375 -2.21875 C 7.804688 -2.21875 8.625 -2.359375 9.3125 -2.640625 C 10 -2.921875 10.53125 -3.359375 10.90625 -3.953125 C 11.289062 -4.546875 11.484375 -5.289062 11.484375 -6.1875 C 11.484375 -7.40625 11.101562 -8.332031 10.34375 -8.96875 C 9.582031 -9.613281 8.390625 -9.9375 6.765625 -9.9375 C 6.242188 -9.9375 5.660156 -9.890625 5.015625 -9.796875 C 4.378906 -9.703125 3.863281 -9.609375 3.46875 -9.515625 L 2.09375 -10.328125 L 2.859375 -20 L 13.125 -20 L 13.125 -17.359375 L 5.421875 -17.359375 L 4.984375 -12.109375 C 5.296875 -12.171875 5.695312 -12.234375 6.1875 -12.296875 C 6.675781 -12.367188 7.25 -12.40625 7.90625 -12.40625 Z M 7.90625 -12.40625 "/>
</g>
<g id="glyph-273357-0-5">
<path d="M 1.375 -8.53125 C 1.375 -9.6875 1.453125 -10.820312 1.609375 -11.9375 C 1.773438 -13.0625 2.054688 -14.117188 2.453125 -15.109375 C 2.859375 -16.109375 3.414062 -16.992188 4.125 -17.765625 C 4.832031 -18.546875 5.726562 -19.15625 6.8125 -19.59375 C 7.90625 -20.03125 9.226562 -20.25 10.78125 -20.25 C 11.175781 -20.25 11.617188 -20.234375 12.109375 -20.203125 C 12.597656 -20.171875 13 -20.109375 13.3125 -20.015625 L 13.3125 -17.546875 C 12.976562 -17.648438 12.597656 -17.726562 12.171875 -17.78125 C 11.753906 -17.832031 11.332031 -17.859375 10.90625 -17.859375 C 9.632812 -17.859375 8.570312 -17.660156 7.71875 -17.265625 C 6.875 -16.878906 6.207031 -16.335938 5.71875 -15.640625 C 5.238281 -14.953125 4.890625 -14.15625 4.671875 -13.25 C 4.453125 -12.34375 4.316406 -11.363281 4.265625 -10.3125 L 4.421875 -10.3125 C 4.703125 -10.757812 5.050781 -11.160156 5.46875 -11.515625 C 5.882812 -11.867188 6.382812 -12.144531 6.96875 -12.34375 C 7.5625 -12.550781 8.253906 -12.65625 9.046875 -12.65625 C 10.203125 -12.65625 11.210938 -12.414062 12.078125 -11.9375 C 12.941406 -11.457031 13.613281 -10.757812 14.09375 -9.84375 C 14.570312 -8.925781 14.8125 -7.8125 14.8125 -6.5 C 14.8125 -5.101562 14.546875 -3.894531 14.015625 -2.875 C 13.484375 -1.863281 12.734375 -1.082031 11.765625 -0.53125 C 10.804688 0.0078125 9.660156 0.28125 8.328125 0.28125 C 7.347656 0.28125 6.4375 0.101562 5.59375 -0.25 C 4.757812 -0.601562 4.023438 -1.140625 3.390625 -1.859375 C 2.753906 -2.585938 2.257812 -3.503906 1.90625 -4.609375 C 1.550781 -5.722656 1.375 -7.03125 1.375 -8.53125 Z M 8.28125 -2.1875 C 9.351562 -2.1875 10.222656 -2.535156 10.890625 -3.234375 C 11.554688 -3.929688 11.890625 -5.015625 11.890625 -6.484375 C 11.890625 -7.671875 11.597656 -8.609375 11.015625 -9.296875 C 10.429688 -9.992188 9.546875 -10.34375 8.359375 -10.34375 C 7.566406 -10.34375 6.867188 -10.171875 6.265625 -9.828125 C 5.671875 -9.492188 5.207031 -9.066406 4.875 -8.546875 C 4.539062 -8.023438 4.375 -7.488281 4.375 -6.9375 C 4.375 -6.363281 4.453125 -5.796875 4.609375 -5.234375 C 4.773438 -4.679688 5.023438 -4.171875 5.359375 -3.703125 C 5.691406 -3.242188 6.097656 -2.875 6.578125 -2.59375 C 7.066406 -2.320312 7.632812 -2.1875 8.28125 -2.1875 Z M 8.28125 -2.1875 "/>
</g>
<g id="glyph-273357-0-6">
<path d="M 3.609375 0 L 11.59375 -17.359375 L 1.09375 -17.359375 L 1.09375 -20 L 14.78125 -20 L 14.78125 -17.859375 L 6.828125 0 Z M 3.609375 0 "/>
</g>
<g id="glyph-273357-0-7">
<path d="M 7.984375 -20.265625 C 9.160156 -20.265625 10.203125 -20.082031 11.109375 -19.71875 C 12.023438 -19.363281 12.75 -18.828125 13.28125 -18.109375 C 13.820312 -17.398438 14.09375 -16.519531 14.09375 -15.46875 C 14.09375 -14.664062 13.921875 -13.960938 13.578125 -13.359375 C 13.242188 -12.765625 12.796875 -12.238281 12.234375 -11.78125 C 11.671875 -11.320312 11.046875 -10.921875 10.359375 -10.578125 C 11.140625 -10.191406 11.863281 -9.75 12.53125 -9.25 C 13.195312 -8.757812 13.726562 -8.1875 14.125 -7.53125 C 14.53125 -6.875 14.734375 -6.09375 14.734375 -5.1875 C 14.734375 -4.070312 14.453125 -3.101562 13.890625 -2.28125 C 13.335938 -1.46875 12.5625 -0.835938 11.5625 -0.390625 C 10.5625 0.0546875 9.390625 0.28125 8.046875 0.28125 C 6.585938 0.28125 5.351562 0.0664062 4.34375 -0.359375 C 3.332031 -0.796875 2.5625 -1.410156 2.03125 -2.203125 C 1.507812 -2.992188 1.25 -3.957031 1.25 -5.09375 C 1.25 -6 1.4375 -6.785156 1.8125 -7.453125 C 2.1875 -8.128906 2.679688 -8.710938 3.296875 -9.203125 C 3.910156 -9.691406 4.582031 -10.101562 5.3125 -10.4375 C 4.675781 -10.8125 4.097656 -11.238281 3.578125 -11.71875 C 3.054688 -12.195312 2.644531 -12.738281 2.34375 -13.34375 C 2.039062 -13.957031 1.890625 -14.675781 1.890625 -15.5 C 1.890625 -16.53125 2.160156 -17.394531 2.703125 -18.09375 C 3.253906 -18.800781 3.988281 -19.335938 4.90625 -19.703125 C 5.820312 -20.078125 6.847656 -20.265625 7.984375 -20.265625 Z M 4.109375 -5.140625 C 4.109375 -4.242188 4.425781 -3.5 5.0625 -2.90625 C 5.707031 -2.3125 6.679688 -2.015625 7.984375 -2.015625 C 9.253906 -2.015625 10.21875 -2.304688 10.875 -2.890625 C 11.539062 -3.484375 11.875 -4.25 11.875 -5.1875 C 11.875 -5.800781 11.707031 -6.335938 11.375 -6.796875 C 11.050781 -7.265625 10.601562 -7.679688 10.03125 -8.046875 C 9.457031 -8.410156 8.800781 -8.742188 8.0625 -9.046875 L 7.640625 -9.21875 C 6.890625 -8.894531 6.25 -8.535156 5.71875 -8.140625 C 5.195312 -7.753906 4.796875 -7.316406 4.515625 -6.828125 C 4.242188 -6.347656 4.109375 -5.785156 4.109375 -5.140625 Z M 7.953125 -17.953125 C 7.023438 -17.953125 6.257812 -17.722656 5.65625 -17.265625 C 5.0625 -16.816406 4.765625 -16.164062 4.765625 -15.3125 C 4.765625 -14.695312 4.910156 -14.171875 5.203125 -13.734375 C 5.503906 -13.304688 5.90625 -12.941406 6.40625 -12.640625 C 6.914062 -12.335938 7.46875 -12.046875 8.0625 -11.765625 C 8.65625 -12.023438 9.1875 -12.304688 9.65625 -12.609375 C 10.125 -12.921875 10.5 -13.296875 10.78125 -13.734375 C 11.0625 -14.171875 11.203125 -14.695312 11.203125 -15.3125 C 11.203125 -16.164062 10.90625 -16.816406 10.3125 -17.265625 C 9.71875 -17.722656 8.929688 -17.953125 7.953125 -17.953125 Z M 7.953125 -17.953125 "/>
</g>
<g id="glyph-273357-0-8">
<path d="M 14.6875 -11.453125 C 14.6875 -10.316406 14.601562 -9.179688 14.4375 -8.046875 C 14.28125 -6.921875 14 -5.859375 13.59375 -4.859375 C 13.195312 -3.859375 12.644531 -2.96875 11.9375 -2.1875 C 11.226562 -1.414062 10.328125 -0.8125 9.234375 -0.375 C 8.140625 0.0625 6.816406 0.28125 5.265625 0.28125 C 4.878906 0.28125 4.4375 0.257812 3.9375 0.21875 C 3.4375 0.175781 3.019531 0.113281 2.6875 0.03125 L 2.6875 -2.453125 C 3.039062 -2.347656 3.429688 -2.265625 3.859375 -2.203125 C 4.296875 -2.140625 4.722656 -2.109375 5.140625 -2.109375 C 6.429688 -2.109375 7.492188 -2.300781 8.328125 -2.6875 C 9.171875 -3.082031 9.835938 -3.625 10.328125 -4.3125 C 10.816406 -5 11.171875 -5.800781 11.390625 -6.71875 C 11.617188 -7.632812 11.75 -8.609375 11.78125 -9.640625 L 11.625 -9.640625 C 11.34375 -9.210938 11 -8.820312 10.59375 -8.46875 C 10.1875 -8.113281 9.6875 -7.832031 9.09375 -7.625 C 8.5 -7.414062 7.785156 -7.3125 6.953125 -7.3125 C 5.816406 -7.3125 4.816406 -7.550781 3.953125 -8.03125 C 3.097656 -8.519531 2.429688 -9.21875 1.953125 -10.125 C 1.484375 -11.039062 1.25 -12.148438 1.25 -13.453125 C 1.25 -14.867188 1.515625 -16.082031 2.046875 -17.09375 C 2.585938 -18.113281 3.34375 -18.894531 4.3125 -19.4375 C 5.289062 -19.976562 6.441406 -20.25 7.765625 -20.25 C 8.734375 -20.25 9.640625 -20.066406 10.484375 -19.703125 C 11.328125 -19.347656 12.0625 -18.804688 12.6875 -18.078125 C 13.3125 -17.359375 13.800781 -16.445312 14.15625 -15.34375 C 14.507812 -14.238281 14.6875 -12.941406 14.6875 -11.453125 Z M 7.78125 -17.796875 C 6.726562 -17.796875 5.863281 -17.441406 5.1875 -16.734375 C 4.507812 -16.035156 4.171875 -14.953125 4.171875 -13.484375 C 4.171875 -12.285156 4.457031 -11.34375 5.03125 -10.65625 C 5.601562 -9.976562 6.488281 -9.640625 7.6875 -9.640625 C 8.5 -9.640625 9.203125 -9.804688 9.796875 -10.140625 C 10.390625 -10.484375 10.851562 -10.914062 11.1875 -11.4375 C 11.53125 -11.957031 11.703125 -12.492188 11.703125 -13.046875 C 11.703125 -13.597656 11.617188 -14.15625 11.453125 -14.71875 C 11.285156 -15.28125 11.039062 -15.796875 10.71875 -16.265625 C 10.394531 -16.734375 9.984375 -17.101562 9.484375 -17.375 C 8.992188 -17.65625 8.425781 -17.796875 7.78125 -17.796875 Z M 7.78125 -17.796875 "/>
</g>
<g id="glyph-273357-0-9">
<path d="M 14.75 -10.015625 C 14.75 -8.398438 14.625 -6.957031 14.375 -5.6875 C 14.125 -4.414062 13.726562 -3.335938 13.1875 -2.453125 C 12.65625 -1.566406 11.957031 -0.890625 11.09375 -0.421875 C 10.238281 0.046875 9.203125 0.28125 7.984375 0.28125 C 6.453125 0.28125 5.1875 -0.128906 4.1875 -0.953125 C 3.195312 -1.773438 2.460938 -2.953125 1.984375 -4.484375 C 1.503906 -6.023438 1.265625 -7.867188 1.265625 -10.015625 C 1.265625 -12.179688 1.484375 -14.03125 1.921875 -15.5625 C 2.367188 -17.09375 3.082031 -18.265625 4.0625 -19.078125 C 5.050781 -19.890625 6.359375 -20.296875 7.984375 -20.296875 C 9.503906 -20.296875 10.765625 -19.890625 11.765625 -19.078125 C 12.765625 -18.265625 13.507812 -17.09375 14 -15.5625 C 14.5 -14.03125 14.75 -12.179688 14.75 -10.015625 Z M 4.234375 -10.015625 C 4.234375 -8.273438 4.351562 -6.828125 4.59375 -5.671875 C 4.84375 -4.523438 5.238281 -3.660156 5.78125 -3.078125 C 6.320312 -2.492188 7.054688 -2.203125 7.984375 -2.203125 C 8.898438 -2.203125 9.628906 -2.488281 10.171875 -3.0625 C 10.722656 -3.632812 11.125 -4.5 11.375 -5.65625 C 11.625 -6.820312 11.75 -8.273438 11.75 -10.015625 C 11.75 -11.753906 11.625 -13.195312 11.375 -14.34375 C 11.125 -15.5 10.722656 -16.363281 10.171875 -16.9375 C 9.628906 -17.519531 8.898438 -17.8125 7.984375 -17.8125 C 7.054688 -17.8125 6.320312 -17.519531 5.78125 -16.9375 C 5.238281 -16.363281 4.84375 -15.5 4.59375 -14.34375 C 4.351562 -13.195312 4.234375 -11.753906 4.234375 -10.015625 Z M 4.234375 -10.015625 "/>
</g>
</g>
</defs>
<path fill="none" stroke-width="1" stroke-linecap="butt" stroke-linejoin="miter" stroke="rgb(100%, 100%, 100%)" stroke-opacity="1" stroke-miterlimit="10" d="M 566.9375 226.792969 C 541.941406 268.914062 516.945312 311.03125 491.949219 353.152344 "/>
<path fill-rule="nonzero" fill="rgb(100%, 100%, 100%)" fill-opacity="1" d="M 495.914062 355.472656 L 486.304688 362.660156 L 488.015625 350.785156 "/>
<path fill="none" stroke-width="1" stroke-linecap="butt" stroke-linejoin="miter" stroke="rgb(100%, 100%, 100%)" stroke-opacity="1" stroke-miterlimit="10" d="M 315.457031 410.613281 C 343.605469 360.902344 371.757812 311.191406 399.910156 261.480469 "/>
<path fill-rule="nonzero" fill="rgb(100%, 100%, 100%)" fill-opacity="1" d="M 395.839844 259.34375 L 405.300781 251.960938 L 403.832031 263.871094 "/>
<path fill="none" stroke-width="1" stroke-linecap="butt" stroke-linejoin="miter" stroke="rgb(100%, 100%, 100%)" stroke-opacity="1" stroke-miterlimit="10" d="M 267.46875 123.460938 C 310.167969 160.851562 352.867188 198.238281 395.566406 235.625 "/>
<path fill-rule="nonzero" fill="rgb(100%, 100%, 100%)" fill-opacity="1" d="M 398.425781 232.027344 L 403.742188 242.785156 L 392.375 238.9375 "/>
<path fill="none" stroke-width="1" stroke-linecap="butt" stroke-linejoin="miter" stroke="rgb(100%, 100%, 100%)" stroke-opacity="1" stroke-miterlimit="10" d="M 258.078125 123.007812 C 221.6875 149.109375 185.300781 175.207031 148.910156 201.308594 "/>
<path fill-rule="nonzero" fill="rgb(100%, 100%, 100%)" fill-opacity="1" d="M 152.378906 204.472656 L 140.695312 207.203125 L 147.027344 197.011719 "/>
<path fill="none" stroke-width="1" stroke-linecap="butt" stroke-linejoin="miter" stroke="rgb(100%, 100%, 100%)" stroke-opacity="1" stroke-miterlimit="10" d="M 264.171875 125.386719 C 273.070312 168.328125 281.96875 211.273438 290.867188 254.21875 "/>
<path fill-rule="nonzero" fill="rgb(100%, 100%, 100%)" fill-opacity="1" d="M 295.125 252.125 L 292.878906 263.914062 L 286.132812 253.988281 "/>
<path fill="none" stroke-width="1" stroke-linecap="butt" stroke-linejoin="miter" stroke="rgb(100%, 100%, 100%)" stroke-opacity="1" stroke-miterlimit="10" d="M 306.714844 414.246094 C 262.210938 402.019531 217.710938 389.792969 173.210938 377.5625 "/>
<path fill-rule="nonzero" fill="rgb(100%, 100%, 100%)" fill-opacity="1" d="M 172.632812 382.167969 L 163.160156 374.800781 L 175.066406 373.3125 "/>
<path fill="none" stroke-width="1" stroke-linecap="butt" stroke-linejoin="miter" stroke="rgb(100%, 100%, 100%)" stroke-opacity="1" stroke-miterlimit="10" d="M 299.421875 272.550781 C 355.945312 301.84375 412.46875 331.140625 468.992188 360.433594 "/>
<path fill-rule="nonzero" fill="rgb(100%, 100%, 100%)" fill-opacity="1" d="M 470.1875 355.882812 L 477.914062 365.058594 L 465.960938 364.035156 "/>
<path fill="none" stroke-width="1" stroke-linecap="butt" stroke-linejoin="miter" stroke="rgb(100%, 100%, 100%)" stroke-opacity="1" stroke-miterlimit="10" d="M 136.609375 216.648438 C 142.800781 263.339844 148.996094 310.03125 155.1875 356.722656 "/>
<path fill-rule="nonzero" fill="rgb(100%, 100%, 100%)" fill-opacity="1" d="M 159.679688 355.671875 L 156.585938 367.265625 L 150.578125 356.878906 "/>
<path fill="none" stroke-width="1" stroke-linecap="butt" stroke-linejoin="miter" stroke="rgb(100%, 100%, 100%)" stroke-opacity="1" stroke-miterlimit="10" d="M 289.3125 273.410156 C 249.46875 303.546875 209.628906 333.683594 169.789062 363.820312 "/>
<path fill-rule="nonzero" fill="rgb(100%, 100%, 100%)" fill-opacity="1" d="M 173.773438 366.566406 L 162.160156 369.59375 L 168.230469 359.242188 "/>
<path fill="none" stroke-width="1" stroke-linecap="butt" stroke-linejoin="miter" stroke="rgb(100%, 100%, 100%)" stroke-opacity="1" stroke-miterlimit="10" d="M 564.070312 222.554688 C 517.605469 229.765625 471.140625 236.976562 424.675781 244.191406 "/>
<path fill-rule="nonzero" fill="rgb(100%, 100%, 100%)" fill-opacity="1" d="M 425.84375 248.65625 L 414.183594 245.816406 L 424.4375 239.578125 "/>
<path fill="none" stroke-width="1" stroke-linecap="butt" stroke-linejoin="miter" stroke="rgb(100%, 100%, 100%)" stroke-opacity="1" stroke-miterlimit="10" d="M 288.476562 267.691406 C 242.894531 250.675781 197.3125 233.65625 151.734375 216.640625 "/>
<path fill-rule="nonzero" fill="rgb(100%, 100%, 100%)" fill-opacity="1" d="M 150.21875 220.976562 L 141.441406 212.796875 L 153.433594 212.375 "/>
<path fill="none" stroke-width="1" stroke-linecap="butt" stroke-linejoin="miter" stroke="rgb(100%, 100%, 100%)" stroke-opacity="1" stroke-miterlimit="10" d="M 152.851562 377.152344 C 116.171875 409.117188 79.488281 441.078125 42.808594 473.039062 "/>
<path fill-rule="nonzero" fill="rgb(100%, 100%, 100%)" fill-opacity="1" d="M 45.898438 476.433594 L 34.523438 480.253906 L 39.867188 469.511719 "/>
<path fill="none" stroke-width="1" stroke-linecap="butt" stroke-linejoin="miter" stroke="rgb(100%, 100%, 100%)" stroke-opacity="1" stroke-miterlimit="10" d="M 565.304688 217.898438 C 526.996094 187.40625 488.691406 156.917969 450.382812 126.425781 "/>
<path fill-rule="nonzero" fill="rgb(100%, 100%, 100%)" fill-opacity="1" d="M 447.546875 130.035156 L 441.730469 119.539062 L 453.265625 122.851562 "/>
<path fill="none" stroke-width="1" stroke-linecap="butt" stroke-linejoin="miter" stroke="rgb(100%, 100%, 100%)" stroke-opacity="1" stroke-miterlimit="10" d="M 294.847656 275.742188 C 300.03125 316.878906 305.214844 358.015625 310.398438 399.152344 "/>
<path fill-rule="nonzero" fill="rgb(100%, 100%, 100%)" fill-opacity="1" d="M 314.917969 398.308594 L 311.75 409.882812 L 305.808594 399.457031 "/>
<path fill="none" stroke-width="1" stroke-linecap="butt" stroke-linejoin="miter" stroke="rgb(100%, 100%, 100%)" stroke-opacity="1" stroke-miterlimit="10" d="M 432.957031 120.199219 C 390.277344 166.179688 347.597656 212.15625 304.917969 258.132812 "/>
<path fill-rule="nonzero" fill="rgb(100%, 100%, 100%)" fill-opacity="1" d="M 309.085938 260.390625 L 298.179688 265.390625 L 302.355469 254.140625 "/>
<path fill="none" stroke-width="1" stroke-linecap="butt" stroke-linejoin="miter" stroke="rgb(100%, 100%, 100%)" stroke-opacity="1" stroke-miterlimit="10" d="M 486.304688 362.660156 C 511.300781 320.542969 536.296875 278.425781 561.292969 236.304688 "/>
<path fill-rule="nonzero" fill="rgb(100%, 100%, 100%)" fill-opacity="1" d="M 557.332031 233.984375 L 566.9375 226.792969 L 565.230469 238.671875 "/>
<path fill="none" stroke-width="1" stroke-linecap="butt" stroke-linejoin="miter" stroke="rgb(100%, 100%, 100%)" stroke-opacity="1" stroke-miterlimit="10" d="M 405.300781 251.960938 C 377.148438 301.671875 348.996094 351.382812 320.847656 401.097656 "/>
<path fill-rule="nonzero" fill="rgb(100%, 100%, 100%)" fill-opacity="1" d="M 324.914062 403.230469 L 315.457031 410.613281 L 316.921875 398.707031 "/>
<path fill="none" stroke-width="1" stroke-linecap="butt" stroke-linejoin="miter" stroke="rgb(100%, 100%, 100%)" stroke-opacity="1" stroke-miterlimit="10" d="M 403.742188 242.785156 C 361.042969 205.398438 318.34375 168.011719 275.644531 130.621094 "/>
<path fill-rule="nonzero" fill="rgb(100%, 100%, 100%)" fill-opacity="1" d="M 272.785156 134.222656 L 267.46875 123.460938 L 278.835938 127.3125 "/>
<path fill="none" stroke-width="1" stroke-linecap="butt" stroke-linejoin="miter" stroke="rgb(100%, 100%, 100%)" stroke-opacity="1" stroke-miterlimit="10" d="M 140.695312 207.203125 C 177.082031 181.101562 213.472656 155 249.863281 128.902344 "/>
<path fill-rule="nonzero" fill="rgb(100%, 100%, 100%)" fill-opacity="1" d="M 246.394531 125.738281 L 258.078125 123.007812 L 251.746094 133.199219 "/>
<path fill="none" stroke-width="1" stroke-linecap="butt" stroke-linejoin="miter" stroke="rgb(100%, 100%, 100%)" stroke-opacity="1" stroke-miterlimit="10" d="M 292.878906 263.914062 C 283.980469 220.96875 275.082031 178.027344 266.179688 135.082031 "/>
<path fill-rule="nonzero" fill="rgb(100%, 100%, 100%)" fill-opacity="1" d="M 261.925781 137.171875 L 264.171875 125.386719 L 270.917969 135.308594 "/>
<path fill="none" stroke-width="1" stroke-linecap="butt" stroke-linejoin="miter" stroke="rgb(100%, 100%, 100%)" stroke-opacity="1" stroke-miterlimit="10" d="M 163.160156 374.800781 C 207.664062 387.03125 252.164062 399.257812 296.664062 411.484375 "/>
<path fill-rule="nonzero" fill="rgb(100%, 100%, 100%)" fill-opacity="1" d="M 297.242188 406.882812 L 306.714844 414.246094 L 294.808594 415.738281 "/>
<path fill="none" stroke-width="1" stroke-linecap="butt" stroke-linejoin="miter" stroke="rgb(100%, 100%, 100%)" stroke-opacity="1" stroke-miterlimit="10" d="M 477.914062 365.058594 C 421.394531 335.765625 364.871094 306.46875 308.347656 277.175781 "/>
<path fill-rule="nonzero" fill="rgb(100%, 100%, 100%)" fill-opacity="1" d="M 307.152344 281.730469 L 299.421875 272.550781 L 311.378906 273.574219 "/>
<path fill="none" stroke-width="1" stroke-linecap="butt" stroke-linejoin="miter" stroke="rgb(100%, 100%, 100%)" stroke-opacity="1" stroke-miterlimit="10" d="M 156.585938 367.265625 C 150.394531 320.574219 144.199219 273.882812 138.007812 227.191406 "/>
<path fill-rule="nonzero" fill="rgb(100%, 100%, 100%)" fill-opacity="1" d="M 133.511719 228.242188 L 136.609375 216.648438 L 142.617188 227.035156 "/>
<path fill="none" stroke-width="1" stroke-linecap="butt" stroke-linejoin="miter" stroke="rgb(100%, 100%, 100%)" stroke-opacity="1" stroke-miterlimit="10" d="M 162.160156 369.59375 C 202 339.457031 241.839844 309.316406 281.683594 279.179688 "/>
<path fill-rule="nonzero" fill="rgb(100%, 100%, 100%)" fill-opacity="1" d="M 277.699219 276.433594 L 289.3125 273.410156 L 283.238281 283.761719 "/>
<path fill="none" stroke-width="1" stroke-linecap="butt" stroke-linejoin="miter" stroke="rgb(100%, 100%, 100%)" stroke-opacity="1" stroke-miterlimit="10" d="M 414.183594 245.816406 C 460.648438 238.605469 507.113281 231.394531 553.578125 224.183594 "/>
<path fill-rule="nonzero" fill="rgb(100%, 100%, 100%)" fill-opacity="1" d="M 552.410156 219.71875 L 564.070312 222.554688 L 553.820312 228.792969 "/>
<path fill="none" stroke-width="1" stroke-linecap="butt" stroke-linejoin="miter" stroke="rgb(100%, 100%, 100%)" stroke-opacity="1" stroke-miterlimit="10" d="M 141.441406 212.796875 C 187.019531 229.816406 232.601562 246.832031 278.183594 263.847656 "/>
<path fill-rule="nonzero" fill="rgb(100%, 100%, 100%)" fill-opacity="1" d="M 279.695312 259.511719 L 288.476562 267.691406 L 276.484375 268.117188 "/>
<path fill="none" stroke-width="1" stroke-linecap="butt" stroke-linejoin="miter" stroke="rgb(100%, 100%, 100%)" stroke-opacity="1" stroke-miterlimit="10" d="M 34.523438 480.253906 C 71.207031 448.292969 107.886719 416.332031 144.570312 384.371094 "/>
<path fill-rule="nonzero" fill="rgb(100%, 100%, 100%)" fill-opacity="1" d="M 141.476562 380.976562 L 152.851562 377.152344 L 147.511719 387.898438 "/>
<path fill="none" stroke-width="1" stroke-linecap="butt" stroke-linejoin="miter" stroke="rgb(100%, 100%, 100%)" stroke-opacity="1" stroke-miterlimit="10" d="M 441.730469 119.539062 C 480.039062 150.03125 518.347656 180.523438 556.65625 211.011719 "/>
<path fill-rule="nonzero" fill="rgb(100%, 100%, 100%)" fill-opacity="1" d="M 559.492188 207.402344 L 565.304688 217.898438 L 553.769531 214.585938 "/>
<path fill="none" stroke-width="1" stroke-linecap="butt" stroke-linejoin="miter" stroke="rgb(100%, 100%, 100%)" stroke-opacity="1" stroke-miterlimit="10" d="M 311.75 409.882812 C 306.566406 368.746094 301.382812 327.609375 296.199219 286.472656 "/>
<path fill-rule="nonzero" fill="rgb(100%, 100%, 100%)" fill-opacity="1" d="M 291.675781 287.316406 L 294.847656 275.742188 L 300.789062 286.167969 "/>
<path fill="none" stroke-width="1" stroke-linecap="butt" stroke-linejoin="miter" stroke="rgb(100%, 100%, 100%)" stroke-opacity="1" stroke-miterlimit="10" d="M 298.179688 265.390625 C 340.859375 219.414062 383.539062 173.4375 426.21875 127.460938 "/>
<path fill-rule="nonzero" fill="rgb(100%, 100%, 100%)" fill-opacity="1" d="M 422.046875 125.203125 L 432.957031 120.199219 L 428.777344 131.449219 "/>
<path fill-rule="nonzero" fill="rgb(46.666667%, 46.666667%, 46.666667%)" fill-opacity="1" stroke-width="1" stroke-linecap="butt" stroke-linejoin="miter" stroke="rgb(100%, 100%, 100%)" stroke-opacity="1" stroke-miterlimit="10" d="M 282.953125 119.511719 C 282.953125 130.554688 274 139.511719 262.953125 139.511719 C 251.90625 139.511719 242.953125 130.554688 242.953125 119.511719 C 242.953125 108.464844 251.90625 99.511719 262.953125 99.511719 C 274 99.511719 282.953125 108.464844 282.953125 119.511719 Z M 282.953125 119.511719 "/>
<g fill="rgb(0%, 0%, 0%)" fill-opacity="1">
<use xlink:href="#glyph-273357-0-0" x="254.945883" y="129.506237"/>
</g>
<path fill-rule="nonzero" fill="rgb(96.862745%, 100%, 6.666667%)" fill-opacity="1" stroke-width="1" stroke-linecap="butt" stroke-linejoin="miter" stroke="rgb(100%, 100%, 100%)" stroke-opacity="1" stroke-miterlimit="10" d="M 590 221.636719 C 590 232.679688 581.046875 241.636719 570 241.636719 C 558.953125 241.636719 550 232.679688 550 221.636719 C 550 210.589844 558.953125 201.636719 570 201.636719 C 581.046875 201.636719 590 210.589844 590 221.636719 Z M 590 221.636719 "/>
<g fill="rgb(0%, 0%, 0%)" fill-opacity="1">
<use xlink:href="#glyph-273357-0-1" x="561.992" y="231.771007"/>
</g>
<path fill-rule="nonzero" fill="rgb(27.058824%, 100%, 99.215686%)" fill-opacity="1" stroke-width="1" stroke-linecap="butt" stroke-linejoin="miter" stroke="rgb(100%, 100%, 100%)" stroke-opacity="1" stroke-miterlimit="10" d="M 457.039062 115.804688 C 457.039062 126.847656 448.082031 135.804688 437.039062 135.804688 C 425.992188 135.804688 417.039062 126.847656 417.039062 115.804688 C 417.039062 104.757812 425.992188 95.804688 437.039062 95.804688 C 448.082031 95.804688 457.039062 104.757812 457.039062 115.804688 Z M 457.039062 115.804688 "/>
<g fill="rgb(0%, 0%, 0%)" fill-opacity="1">
<use xlink:href="#glyph-273357-0-2" x="429.029801" y="125.939189"/>
</g>
<path fill-rule="nonzero" fill="rgb(100%, 81.568627%, 100%)" fill-opacity="1" stroke-width="1" stroke-linecap="butt" stroke-linejoin="miter" stroke="rgb(100%, 100%, 100%)" stroke-opacity="1" stroke-miterlimit="10" d="M 314.097656 269.789062 C 314.097656 280.835938 305.140625 289.789062 294.097656 289.789062 C 283.050781 289.789062 274.097656 280.835938 274.097656 269.789062 C 274.097656 258.742188 283.050781 249.789062 294.097656 249.789062 C 305.140625 249.789062 314.097656 258.742188 314.097656 269.789062 Z M 314.097656 269.789062 "/>
<g fill="rgb(0%, 0%, 0%)" fill-opacity="1">
<use xlink:href="#glyph-273357-0-3" x="286.088068" y="279.824594"/>
</g>
<path fill-rule="nonzero" fill="rgb(100%, 59.215686%, 0%)" fill-opacity="1" stroke-width="1" stroke-linecap="butt" stroke-linejoin="miter" stroke="rgb(100%, 100%, 100%)" stroke-opacity="1" stroke-miterlimit="10" d="M 332.5 415.835938 C 332.5 426.882812 323.546875 435.835938 312.5 435.835938 C 301.453125 435.835938 292.5 426.882812 292.5 415.835938 C 292.5 404.789062 301.453125 395.835938 312.5 395.835938 C 323.546875 395.835938 332.5 404.789062 332.5 415.835938 Z M 332.5 415.835938 "/>
<g fill="rgb(0%, 0%, 0%)" fill-opacity="1">
<use xlink:href="#glyph-273357-0-4" x="304.491447" y="425.832168"/>
</g>
<path fill-rule="nonzero" fill="rgb(0%, 71.764706%, 26.666667%)" fill-opacity="1" stroke-width="1" stroke-linecap="butt" stroke-linejoin="miter" stroke="rgb(100%, 100%, 100%)" stroke-opacity="1" stroke-miterlimit="10" d="M 155.820312 210.699219 C 155.820312 221.746094 146.863281 230.699219 135.820312 230.699219 C 124.773438 230.699219 115.820312 221.746094 115.820312 210.699219 C 115.820312 199.65625 124.773438 190.699219 135.820312 190.699219 C 146.863281 190.699219 155.820312 199.65625 155.820312 210.699219 Z M 155.820312 210.699219 "/>
<g fill="rgb(0%, 0%, 0%)" fill-opacity="1">
<use xlink:href="#glyph-273357-0-5" x="127.810997" y="220.827949"/>
</g>
<path fill-rule="nonzero" fill="rgb(83.921569%, 21.176471%, 92.156863%)" fill-opacity="1" stroke-width="1" stroke-linecap="butt" stroke-linejoin="miter" stroke="rgb(100%, 100%, 100%)" stroke-opacity="1" stroke-miterlimit="10" d="M 428.253906 246.738281 C 428.253906 257.785156 419.300781 266.738281 408.253906 266.738281 C 397.210938 266.738281 388.253906 257.785156 388.253906 246.738281 C 388.253906 235.691406 397.210938 226.738281 408.253906 226.738281 C 419.300781 226.738281 428.253906 235.691406 428.253906 246.738281 Z M 428.253906 246.738281 "/>
<g fill="rgb(0%, 0%, 0%)" fill-opacity="1">
<use xlink:href="#glyph-273357-0-6" x="400.247847" y="256.734335"/>
</g>
<path fill-rule="nonzero" fill="rgb(100%, 0%, 10.980392%)" fill-opacity="1" stroke-width="1" stroke-linecap="butt" stroke-linejoin="miter" stroke="rgb(100%, 100%, 100%)" stroke-opacity="1" stroke-miterlimit="10" d="M 177.375 373.210938 C 177.375 384.257812 168.421875 393.210938 157.375 393.210938 C 146.328125 393.210938 137.375 384.257812 137.375 373.210938 C 137.375 362.167969 146.328125 353.210938 157.375 353.210938 C 168.421875 353.210938 177.375 362.167969 177.375 373.210938 Z M 177.375 373.210938 "/>
<g fill="rgb(0%, 0%, 0%)" fill-opacity="1">
<use xlink:href="#glyph-273357-0-7" x="149.367556" y="383.344556"/>
</g>
<path fill-rule="nonzero" fill="rgb(50.588235%, 71.764706%, 100%)" fill-opacity="1" stroke-width="1" stroke-linecap="butt" stroke-linejoin="miter" stroke="rgb(100%, 100%, 100%)" stroke-opacity="1" stroke-miterlimit="10" d="M 503.242188 367.820312 C 503.242188 378.867188 494.289062 387.820312 483.242188 387.820312 C 472.195312 387.820312 463.242188 378.867188 463.242188 367.820312 C 463.242188 356.773438 472.195312 347.820312 483.242188 347.820312 C 494.289062 347.820312 503.242188 356.773438 503.242188 367.820312 Z M 503.242188 367.820312 "/>
<g fill="rgb(0%, 0%, 0%)" fill-opacity="1">
<use xlink:href="#glyph-273357-0-8" x="475.234698" y="377.948632"/>
</g>
<path fill-rule="nonzero" fill="rgb(100%, 97.647059%, 92.156863%)" fill-opacity="1" stroke-width="1" stroke-linecap="butt" stroke-linejoin="miter" stroke="rgb(100%, 100%, 100%)" stroke-opacity="1" stroke-miterlimit="10" d="M 50 484.195312 C 50 495.242188 41.046875 504.195312 30 504.195312 C 18.953125 504.195312 10 495.242188 10 484.195312 C 10 473.152344 18.953125 464.195312 30 464.195312 C 41.046875 464.195312 50 473.152344 50 484.195312 Z M 50 484.195312 "/>
<g fill="rgb(0%, 0%, 0%)" fill-opacity="1">
<use xlink:href="#glyph-273357-0-0" x="13.984" y="494.346811"/>
<use xlink:href="#glyph-273357-0-9" x="30" y="494.346811"/>
</g>
</svg>
