<?xml version="1.0" encoding="UTF-8"?>
<svg xmlns="http://www.w3.org/2000/svg" xmlns:xlink="http://www.w3.org/1999/xlink" width="600" height="600" viewBox="0 0 600 600">
<path fill="none" stroke-width="1" stroke-linecap="butt" stroke-linejoin="miter" stroke="rgb(0%, 0%, 0%)" stroke-opacity="1" stroke-miterlimit="10" d="M 514.90625 453.847656 C 418.601562 321.292969 322.292969 188.738281 225.988281 56.183594 "/>
<path fill-rule="nonzero" fill="rgb(0%, 0%, 0%)" fill-opacity="1" d="M 222.894531 59.738281 L 220.09375 48.070312 L 230.324219 54.339844 "/>
<path fill="none" stroke-width="1" stroke-linecap="butt" stroke-linejoin="miter" stroke="rgb(0%, 0%, 0%)" stroke-opacity="1" stroke-miterlimit="10" d="M 377.726562 554.929688 C 283.8125 524.417969 189.898438 493.902344 95.984375 463.386719 "/>
<path fill-rule="nonzero" fill="rgb(0%, 0%, 0%)" fill-opacity="1" d="M 96.398438 468.347656 L 87.273438 460.554688 L 99.234375 459.613281 "/>
<path fill="none" stroke-width="1" stroke-linecap="butt" stroke-linejoin="miter" stroke="rgb(0%, 0%, 0%)" stroke-opacity="1" stroke-miterlimit="10" d="M 211.710938 553.257812 C 172.871094 525.039062 134.03125 496.820312 95.191406 468.601562 "/>
<path fill-rule="nonzero" fill="rgb(0%, 0%, 0%)" fill-opacity="1" d="M 92.691406 472.460938 L 86.417969 462.230469 L 98.089844 465.03125 "/>
<path fill="none" stroke-width="1" stroke-linecap="butt" stroke-linejoin="miter" stroke="rgb(0%, 0%, 0%)" stroke-opacity="1" stroke-miterlimit="10" d="M 564.292969 301.855469 C 408.464844 352.484375 252.640625 403.117188 96.8125 453.746094 "/>
<path fill-rule="nonzero" fill="rgb(0%, 0%, 0%)" fill-opacity="1" d="M 99.234375 457.789062 L 87.273438 456.847656 L 96.398438 449.054688 "/>
<path fill="none" stroke-width="1" stroke-linecap="butt" stroke-linejoin="miter" stroke="rgb(0%, 0%, 0%)" stroke-opacity="1" stroke-miterlimit="10" d="M 214.710938 551.078125 C 171.824219 419.082031 128.933594 287.082031 86.046875 155.085938 "/>
<path fill-rule="nonzero" fill="rgb(0%, 0%, 0%)" fill-opacity="1" d="M 82.476562 158.96875 L 83.417969 147.003906 L 91.210938 156.128906 "/>
<path fill="none" stroke-width="1" stroke-linecap="butt" stroke-linejoin="miter" stroke="rgb(0%, 0%, 0%)" stroke-opacity="1" stroke-miterlimit="10" d="M 218.417969 551.078125 C 271.71875 387.039062 325.019531 223.003906 378.316406 58.964844 "/>
<path fill-rule="nonzero" fill="rgb(0%, 0%, 0%)" fill-opacity="1" d="M 373.789062 58.046875 L 381.582031 48.921875 L 382.523438 60.882812 "/>
<path fill="none" stroke-width="1" stroke-linecap="butt" stroke-linejoin="miter" stroke="rgb(0%, 0%, 0%)" stroke-opacity="1" stroke-miterlimit="10" d="M 377.433594 556.785156 C 329.425781 556.785156 281.414062 556.785156 233.40625 556.785156 "/>
<path fill-rule="nonzero" fill="rgb(0%, 0%, 0%)" fill-opacity="1" d="M 233.652344 561.378906 L 222.566406 556.785156 L 233.652344 552.191406 "/>
<path fill="none" stroke-width="1" stroke-linecap="butt" stroke-linejoin="miter" stroke="rgb(0%, 0%, 0%)" stroke-opacity="1" stroke-miterlimit="10" d="M 222.566406 43.214844 C 270.574219 43.214844 318.585938 43.214844 366.59375 43.214844 "/>
<path fill-rule="nonzero" fill="rgb(0%, 0%, 0%)" fill-opacity="1" d="M 366.347656 38.621094 L 377.433594 43.214844 L 366.347656 47.808594 "/>
<path fill="none" stroke-width="1" stroke-linecap="butt" stroke-linejoin="miter" stroke="rgb(0%, 0%, 0%)" stroke-opacity="1" stroke-miterlimit="10" d="M 516.582031 452.996094 C 473.691406 320.996094 430.804688 189 387.914062 57.003906 "/>
<path fill-rule="nonzero" fill="rgb(0%, 0%, 0%)" fill-opacity="1" d="M 384.347656 60.882812 L 385.289062 48.921875 L 393.082031 58.046875 "/>
<path fill="none" stroke-width="1" stroke-linecap="butt" stroke-linejoin="miter" stroke="rgb(0%, 0%, 0%)" stroke-opacity="1" stroke-miterlimit="10" d="M 512.433594 458.703125 C 373.644531 458.703125 234.851562 458.703125 96.0625 458.703125 "/>
<path fill-rule="nonzero" fill="rgb(0%, 0%, 0%)" fill-opacity="1" d="M 98.652344 463.292969 L 87.566406 458.703125 L 98.652344 454.109375 "/>
<path fill="none" stroke-width="1" stroke-linecap="butt" stroke-linejoin="miter" stroke="rgb(0%, 0%, 0%)" stroke-opacity="1" stroke-miterlimit="10" d="M 220.09375 48.070312 C 316.398438 180.625 412.707031 313.179688 509.011719 445.730469 "/>
<path fill-rule="nonzero" fill="rgb(0%, 0%, 0%)" fill-opacity="1" d="M 512.105469 442.179688 L 514.90625 453.847656 L 504.675781 447.578125 "/>
<path fill="none" stroke-width="1" stroke-linecap="butt" stroke-linejoin="miter" stroke="rgb(0%, 0%, 0%)" stroke-opacity="1" stroke-miterlimit="10" d="M 87.273438 460.554688 C 181.1875 491.070312 275.101562 521.585938 369.015625 552.101562 "/>
<path fill-rule="nonzero" fill="rgb(0%, 0%, 0%)" fill-opacity="1" d="M 368.601562 547.136719 L 377.726562 554.929688 L 365.765625 555.871094 "/>
<path fill="none" stroke-width="1" stroke-linecap="butt" stroke-linejoin="miter" stroke="rgb(0%, 0%, 0%)" stroke-opacity="1" stroke-miterlimit="10" d="M 86.417969 462.230469 C 125.261719 490.449219 164.101562 518.667969 202.941406 546.886719 "/>
<path fill-rule="nonzero" fill="rgb(0%, 0%, 0%)" fill-opacity="1" d="M 205.441406 543.027344 L 211.710938 553.257812 L 200.042969 550.457031 "/>
<path fill="none" stroke-width="1" stroke-linecap="butt" stroke-linejoin="miter" stroke="rgb(0%, 0%, 0%)" stroke-opacity="1" stroke-miterlimit="10" d="M 87.273438 456.847656 C 243.097656 406.214844 398.925781 355.585938 554.753906 304.953125 "/>
<path fill-rule="nonzero" fill="rgb(0%, 0%, 0%)" fill-opacity="1" d="M 552.332031 300.914062 L 564.292969 301.855469 L 555.167969 309.648438 "/>
<path fill="none" stroke-width="1" stroke-linecap="butt" stroke-linejoin="miter" stroke="rgb(0%, 0%, 0%)" stroke-opacity="1" stroke-miterlimit="10" d="M 83.417969 147.003906 C 126.308594 279.003906 169.195312 411 212.085938 542.996094 "/>
<path fill-rule="nonzero" fill="rgb(0%, 0%, 0%)" fill-opacity="1" d="M 215.652344 539.117188 L 214.710938 551.078125 L 206.917969 541.953125 "/>
<path fill="none" stroke-width="1" stroke-linecap="butt" stroke-linejoin="miter" stroke="rgb(0%, 0%, 0%)" stroke-opacity="1" stroke-miterlimit="10" d="M 381.582031 48.921875 C 328.28125 212.960938 274.980469 376.996094 221.683594 541.035156 "/>
<path fill-rule="nonzero" fill="rgb(0%, 0%, 0%)" fill-opacity="1" d="M 226.210938 541.953125 L 218.417969 551.078125 L 217.476562 539.117188 "/>
<path fill="none" stroke-width="1" stroke-linecap="butt" stroke-linejoin="miter" stroke="rgb(0%, 0%, 0%)" stroke-opacity="1" stroke-miterlimit="10" d="M 222.566406 556.785156 C 270.574219 556.785156 318.585938 556.785156 366.59375 556.785156 "/>
<path fill-rule="nonzero" fill="rgb(0%, 0%, 0%)" fill-opacity="1" d="M 366.347656 552.191406 L 377.433594 556.785156 L 366.347656 561.378906 "/>
<path fill="none" stroke-width="1" stroke-linecap="butt" stroke-linejoin="miter" stroke="rgb(0%, 0%, 0%)" stroke-opacity="1" stroke-miterlimit="10" d="M 377.433594 43.214844 C 329.425781 43.214844 281.414062 43.214844 233.40625 43.214844 "/>
<path fill-rule="nonzero" fill="rgb(0%, 0%, 0%)" fill-opacity="1" d="M 233.652344 47.808594 L 222.566406 43.214844 L 233.652344 38.621094 "/>
<path fill="none" stroke-width="1" stroke-linecap="butt" stroke-linejoin="miter" stroke="rgb(0%, 0%, 0%)" stroke-opacity="1" stroke-miterlimit="10" d="M 385.289062 48.921875 C 428.175781 180.917969 471.066406 312.917969 513.953125 444.914062 "/>
<path fill-rule="nonzero" fill="rgb(0%, 0%, 0%)" fill-opacity="1" d="M 517.523438 441.03125 L 516.582031 452.996094 L 508.789062 443.871094 "/>
<path fill="none" stroke-width="1" stroke-linecap="butt" stroke-linejoin="miter" stroke="rgb(0%, 0%, 0%)" stroke-opacity="1" stroke-miterlimit="10" d="M 87.566406 458.703125 C 226.355469 458.703125 365.148438 458.703125 503.9375 458.703125 "/>
<path fill-rule="nonzero" fill="rgb(0%, 0%, 0%)" fill-opacity="1" d="M 501.347656 454.109375 L 512.433594 458.703125 L 501.347656 463.292969 "/>
<path fill-rule="nonzero" fill="rgb(0%, 0%, 0%)" fill-opacity="1" stroke-width="1" stroke-linecap="butt" stroke-linejoin="miter" stroke="rgb(0%, 0%, 0%)" stroke-opacity="1" stroke-miterlimit="10" d="M 576 300 C 576 303.3125 573.3125 306 570 306 C 566.6875 306 564 303.3125 564 300 C 564 296.6875 566.6875 294 570 294 C 573.3125 294 576 296.6875 576 300 Z M 576 300 "/>
<path fill-rule="nonzero" fill="rgb(0%, 0%, 0%)" fill-opacity="1" stroke-width="1" stroke-linecap="butt" stroke-linejoin="miter" stroke="rgb(0%, 0%, 0%)" stroke-opacity="1" stroke-miterlimit="10" d="M 524.433594 458.703125 C 524.433594 462.015625 521.75 464.703125 518.433594 464.703125 C 515.121094 464.703125 512.433594 462.015625 512.433594 458.703125 C 512.433594 455.386719 515.121094 452.703125 518.433594 452.703125 C 521.75 452.703125 524.433594 455.386719 524.433594 458.703125 Z M 524.433594 458.703125 "/>
<path fill-rule="nonzero" fill="rgb(0%, 0%, 0%)" fill-opacity="1" stroke-width="1" stroke-linecap="butt" stroke-linejoin="miter" stroke="rgb(0%, 0%, 0%)" stroke-opacity="1" stroke-miterlimit="10" d="M 389.433594 556.785156 C 389.433594 560.097656 386.75 562.785156 383.433594 562.785156 C 380.121094 562.785156 377.433594 560.097656 377.433594 556.785156 C 377.433594 553.472656 380.121094 550.785156 383.433594 550.785156 C 386.75 550.785156 389.433594 553.472656 389.433594 556.785156 Z M 389.433594 556.785156 "/>
<path fill-rule="nonzero" fill="rgb(0%, 0%, 0%)" fill-opacity="1" stroke-width="1" stroke-linecap="butt" stroke-linejoin="miter" stroke="rgb(0%, 0%, 0%)" stroke-opacity="1" stroke-miterlimit="10" d="M 222.566406 556.785156 C 222.566406 560.097656 219.878906 562.785156 216.566406 562.785156 C 213.25 562.785156 210.566406 560.097656 210.566406 556.785156 C 210.566406 553.472656 213.25 550.785156 216.566406 550.785156 C 219.878906 550.785156 222.566406 553.472656 222.566406 556.785156 Z M 222.566406 556.785156 "/>
<path fill-rule="nonzero" fill="rgb(0%, 0%, 0%)" fill-opacity="1" stroke-width="1" stroke-linecap="butt" stroke-linejoin="miter" stroke="rgb(0%, 0%, 0%)" stroke-opacity="1" stroke-miterlimit="10" d="M 87.566406 458.703125 C 87.566406 462.015625 84.878906 464.703125 81.566406 464.703125 C 78.25 464.703125 75.566406 462.015625 75.566406 458.703125 C 75.566406 455.386719 78.25 452.703125 81.566406 452.703125 C 84.878906 452.703125 87.566406 455.386719 87.566406 458.703125 Z M 87.566406 458.703125 "/>
<path fill-rule="nonzero" fill="rgb(0%, 0%, 0%)" fill-opacity="1" stroke-width="1" stroke-linecap="butt" stroke-linejoin="miter" stroke="rgb(0%, 0%, 0%)" stroke-opacity="1" stroke-miterlimit="10" d="M 36 300 C 36 303.3125 33.3125 306 30 306 C 26.6875 306 24 303.3125 24 300 C 24 296.6875 26.6875 294 30 294 C 33.3125 294 36 296.6875 36 300 Z M 36 300 "/>
<path fill-rule="nonzero" fill="rgb(0%, 0%, 0%)" fill-opacity="1" stroke-width="1" stroke-linecap="butt" stroke-linejoin="miter" stroke="rgb(0%, 0%, 0%)" stroke-opacity="1" stroke-miterlimit="10" d="M 87.566406 141.296875 C 87.566406 144.613281 84.878906 147.296875 81.566406 147.296875 C 78.25 147.296875 75.566406 144.613281 75.566406 141.296875 C 75.566406 137.984375 78.25 135.296875 81.566406 135.296875 C 84.878906 135.296875 87.566406 137.984375 87.566406 141.296875 Z M 87.566406 141.296875 "/>
<path fill-rule="nonzero" fill="rgb(0%, 0%, 0%)" fill-opacity="1" stroke-width="1" stroke-linecap="butt" stroke-linejoin="miter" stroke="rgb(0%, 0%, 0%)" stroke-opacity="1" stroke-miterlimit="10" d="M 222.566406 43.214844 C 222.566406 46.527344 219.878906 49.214844 216.566406 49.214844 C 213.25 49.214844 210.566406 46.527344 210.566406 43.214844 C 210.566406 39.902344 213.25 37.214844 216.566406 37.214844 C 219.878906 37.214844 222.566406 39.902344 222.566406 43.214844 Z M 222.566406 43.214844 "/>
<path fill-rule="nonzero" fill="rgb(0%, 0%, 0%)" fill-opacity="1" stroke-width="1" stroke-linecap="butt" stroke-linejoin="miter" stroke="rgb(0%, 0%, 0%)" stroke-opacity="1" stroke-miterlimit="10" d="M 389.433594 43.214844 C 389.433594 46.527344 386.75 49.214844 383.433594 49.214844 C 380.121094 49.214844 377.433594 46.527344 377.433594 43.214844 C 377.433594 39.902344 380.121094 37.214844 383.433594 37.214844 C 386.75 37.214844 389.433594 39.902344 389.433594 43.214844 Z M 389.433594 43.214844 "/>
<path fill-rule="nonzero" fill="rgb(0%, 0%, 0%)" fill-opacity="1" stroke-width="1" stroke-linecap="butt" stroke-linejoin="miter" stroke="rgb(0%, 0%, 0%)" stroke-opacity="1" stroke-miterlimit="10" d="M 524.433594 141.296875 C 524.433594 144.613281 521.75 147.296875 518.433594 147.296875 C 515.121094 147.296875 512.433594 144.613281 512.433594 141.296875 C 512.433594 137.984375 515.121094 135.296875 518.433594 135.296875 C 521.75 135.296875 524.433594 137.984375 524.433594 141.296875 Z M 524.433594 141.296875 "/>
</svg>
