<svg width="780" height="400" viewBox="0 0 780 400" fill="none" xmlns="http://www.w3.org/2000/svg">
<g clip-path="url(#clip0_2209_1715)">
<g opacity="0.7" filter="url(#filter0_f_2209_1715)">
<ellipse cx="147" cy="94" rx="161" ry="163" fill="#0941AB"/>
</g>
<rect width="780" height="400" fill="#091B36"/>
<g opacity="0.75" filter="url(#filter1_f_2209_1715)">
<ellipse cx="145.5" cy="64" rx="209.5" ry="212" fill="#0941AB"/>
</g>
<g opacity="0.6" filter="url(#filter2_f_2209_1715)">
<ellipse cx="723" cy="317.5" rx="140" ry="141.5" fill="#0941AB"/>
</g>
<path d="M80.3654 77.9668C77.9607 80.6512 73.5427 83.6711 66.2167 83.6711C54.976 83.6711 46.5315 75.7858 46.5315 63.7622C46.5315 51.7385 55.1997 43.8533 66.2726 43.8533C73.4868 43.8533 77.8489 46.8731 79.974 48.9423L77.6811 53.3044C76.1711 51.403 71.865 48.6068 66.4963 48.6068C58.1636 48.6068 52.1239 54.5906 52.1239 63.6503C52.1239 72.71 58.2196 78.6939 66.4963 78.6939C71.5854 78.6939 75.5001 76.7365 78.0166 73.9962L80.3654 77.9668ZM112.53 69.802C112.53 78.0787 106.379 83.6152 98.4935 83.6152C90.5523 83.6152 84.4007 78.0787 84.4007 69.802C84.4007 61.5811 90.5523 55.9328 98.4935 55.9328C106.379 55.9328 112.53 61.5811 112.53 69.802ZM107.106 69.6342C107.106 64.4333 103.806 60.2949 98.4935 60.2949C93.1248 60.2949 89.8253 64.4333 89.8253 69.6342C89.8253 74.891 93.1248 79.0294 98.4935 79.0294C103.806 79.0294 107.106 74.891 107.106 69.6342ZM142.354 83H136.985V68.1802C136.985 63.7062 136.202 60.3508 131.449 60.3508C126.472 60.3508 124.626 64.5451 124.626 69.6342V83H119.257V56.4361H124.626L124.57 60.6304H124.738C126.136 58.002 128.988 55.9328 132.847 55.9328C140.397 55.9328 142.354 60.9101 142.354 67.2854V83ZM172.889 79.5886C172.106 80.3716 169.366 83.6152 162.264 83.6152C155.106 83.6152 148.842 78.2465 148.842 69.746C148.842 61.1897 155.385 55.9328 162.432 55.9328C169.534 55.9328 172.442 59.4001 172.722 59.7356L170.82 63.6503C169.925 62.7555 167.577 60.4067 162.879 60.4067C158.181 60.4067 154.267 63.9859 154.267 69.5783C154.267 75.1707 157.734 79.0294 162.879 79.0294C168.08 79.0294 170.988 75.674 170.988 75.674L172.889 79.5886ZM200.885 83H195.684L195.629 79.1972C194.175 81.7697 191.155 83.6152 187.408 83.6152C180.026 83.6152 178.068 78.9176 178.068 72.3185V56.3802H183.381V72.0948C183.381 75.7299 184.164 79.1412 188.918 79.1412C193.615 79.1412 195.517 75.1147 195.517 70.6408V56.3802H200.885V83ZM224.213 56.3802L223.878 61.3574H223.654C223.151 61.1337 222.2 60.7982 220.746 60.7982C215.936 60.7982 214.762 65.8873 214.762 69.746V83H209.393V56.4361H214.762L214.706 60.5186H214.874C216.16 57.4987 218.565 55.9328 221.417 55.9328C223.206 55.9328 224.213 56.3802 224.213 56.3802ZM244.064 56.3802L243.728 61.3574H243.505C243.001 61.1337 242.051 60.7982 240.597 60.7982C235.787 60.7982 234.613 65.8873 234.613 69.746V83H229.244V56.4361H234.613L234.557 60.5186H234.725C236.011 57.4987 238.416 55.9328 241.268 55.9328C243.057 55.9328 244.064 56.3802 244.064 56.3802ZM273.093 68.6276C273.093 69.6342 272.925 70.9764 272.925 70.9764H252.457C252.736 76.2332 256.092 79.4209 261.013 79.4209C265.99 79.4209 269.178 76.7365 269.793 76.3451L272.03 79.4209C271.695 79.7005 268.283 83.6152 260.342 83.6152C252.457 83.6152 247.032 78.1346 247.032 69.6901C247.032 61.3015 253.128 55.9328 260.51 55.9328C267.892 55.9328 273.093 61.1897 273.093 68.6276ZM268.004 67.3972C267.948 64.4333 265.711 59.7916 260.342 59.7916C255.029 59.7916 252.681 64.2096 252.513 67.3972H268.004ZM302.637 83H297.269V68.1802C297.269 63.7062 296.486 60.3508 291.732 60.3508C286.755 60.3508 284.909 64.5451 284.909 69.6342V83H279.541V56.4361H284.909L284.853 60.6304H285.021C286.419 58.002 289.271 55.9328 293.13 55.9328C300.68 55.9328 302.637 60.9101 302.637 67.2854V83ZM333.173 79.5886C332.39 80.3716 329.649 83.6152 322.547 83.6152C315.389 83.6152 309.125 78.2465 309.125 69.746C309.125 61.1897 315.668 55.9328 322.715 55.9328C329.817 55.9328 332.725 59.4001 333.005 59.7356L331.103 63.6503C330.209 62.7555 327.86 60.4067 323.162 60.4067C318.465 60.4067 314.55 63.9859 314.55 69.5783C314.55 75.1707 318.017 79.0294 323.162 79.0294C328.363 79.0294 331.271 75.674 331.271 75.674L333.173 79.5886ZM361.784 56.4361L348.977 87.6417C347.132 92.2274 344.951 93.7933 341.987 93.7933C339.023 93.7933 336.954 92.8426 336.954 92.8426L338.016 88.4805C338.016 88.4805 339.47 89.0957 340.812 89.0957C342.993 89.0957 343.553 87.9213 344.28 85.964L345.566 82.4408L334.773 56.3802L340.365 56.4361L348.418 77.0721L356.247 56.3802L361.784 56.4361ZM405.837 55.4295L394.484 83H386.096L374.799 55.4295H384.138L390.402 72.8778L396.61 55.4295H405.837ZM429.842 74.4996C429.842 77.3517 428.612 79.5886 426.599 81.2104C424.585 82.7763 421.845 83.6152 418.154 83.6152C414.016 83.6152 409.654 82.3289 406.522 79.3649L409.877 74.0522C412.114 75.9536 415.805 77.4076 418.042 77.4076C420.279 77.4076 421.845 76.8484 421.845 75.0588C421.845 73.2692 417.819 72.3745 416.812 72.0389C415.749 71.7593 414.184 71.3119 412.897 70.7527C411.611 70.1934 408.2 68.4598 408.2 63.5385C408.2 58.1698 412.897 54.8703 418.658 54.8703C424.418 54.8703 427.661 56.9954 429.227 58.2816L426.319 63.5385C424.753 62.3081 421.621 60.8541 419.385 60.8541C417.259 60.8541 416.085 61.4134 416.085 62.8674C416.085 64.3214 418.21 64.9925 420.112 65.5517C422.013 66.111 422.852 66.3906 424.026 66.838C425.257 67.2854 426.655 68.0124 427.605 68.9072C428.5 69.802 429.842 71.5915 429.842 74.4996ZM475.89 56.548C475.89 60.6864 474.436 63.6503 471.863 65.8314C469.291 67.9565 465.767 68.7394 461.797 68.7394H457.043V83H447.984V44.4125H461.797C465.767 44.4125 469.291 45.1954 471.863 47.3205C474.436 49.4456 475.89 52.4096 475.89 56.548ZM466.718 56.548C466.718 54.5906 465.935 53.2485 464.873 52.4655C463.754 51.6826 462.468 51.403 460.51 51.403H456.987V61.7489H460.51C462.468 61.7489 463.754 61.4693 464.873 60.6864C465.935 59.9034 466.718 58.5053 466.718 56.548ZM505.865 83H497.309L497.141 80.092C495.967 81.2664 493.73 83.6152 489.256 83.6152C484.39 83.6152 479.245 80.9867 479.245 74.8351C479.245 68.6835 484.894 66.6143 489.983 66.3906L496.917 66.111V65.4958C496.917 62.5878 494.848 61.0778 491.269 61.0778C487.746 61.0778 484.223 62.6437 482.825 63.5385L480.476 57.7224C482.825 56.548 487.131 54.9262 492.276 54.9262C497.421 54.9262 500.385 56.1006 502.566 58.1139C504.691 60.1271 505.865 62.8115 505.865 67.4531V83ZM496.973 70.8645L492.555 71.1441C489.815 71.256 488.193 72.4304 488.193 74.4996C488.193 76.6247 489.927 77.9109 492.388 77.9109C494.792 77.9109 496.414 76.3451 496.973 75.3943V70.8645ZM531.144 55.4295L530.64 63.6503H530.249C529.746 63.3707 528.571 62.9792 527.005 62.9792C524.992 62.9792 523.538 64.0977 522.867 64.9925C522.196 65.8873 521.469 67.6768 521.469 70.7527V83H512.521V55.4295H521.469L521.413 59.3442H521.525C523.091 56.3243 525.384 54.9262 528.348 54.9262C530.193 54.9262 531.144 55.4295 531.144 55.4295ZM558.892 83H550.336L550.168 80.092C548.994 81.2664 546.757 83.6152 542.283 83.6152C537.418 83.6152 532.273 80.9867 532.273 74.8351C532.273 68.6835 537.921 66.6143 543.01 66.3906L549.945 66.111V65.4958C549.945 62.5878 547.875 61.0778 544.296 61.0778C540.773 61.0778 537.25 62.6437 535.852 63.5385L533.503 57.7224C535.852 56.548 540.158 54.9262 545.303 54.9262C550.448 54.9262 553.412 56.1006 555.593 58.1139C557.718 60.1271 558.892 62.8115 558.892 67.4531V83ZM550.001 70.8645L545.583 71.1441C542.842 71.256 541.22 72.4304 541.22 74.4996C541.22 76.6247 542.954 77.9109 545.415 77.9109C547.819 77.9109 549.441 76.3451 550.001 75.3943V70.8645ZM574.72 83H565.772V44.4125H574.72V83ZM591.13 83H582.182V44.4125H591.13V83ZM625.436 68.4039C625.436 69.746 625.324 71.3678 625.324 71.3678H605.695C606.086 75.3384 609.106 77.128 612.741 77.128C616.32 77.128 619.452 75.5621 621.018 74.4996L624.541 79.1412C623.646 79.8123 620.011 83.6152 611.455 83.6152C602.954 83.6152 596.747 78.3583 596.747 69.2427C596.747 60.1271 603.458 54.9262 611.623 54.9262C619.787 54.9262 625.436 60.3508 625.436 68.4039ZM617.103 66.2787C617.047 63.7622 615.202 60.7423 611.455 60.7423C607.764 60.7423 605.862 63.6503 605.751 66.2787H617.103ZM639.843 83H630.895V44.4125H639.843V83ZM656.756 47.6002C656.756 50.3964 654.687 52.2418 651.667 52.2418C648.647 52.2418 646.578 50.3964 646.578 47.6002C646.578 44.8599 648.647 42.9585 651.667 42.9585C654.687 42.9585 656.756 44.8599 656.756 47.6002ZM656.141 83H647.193V55.4295H656.141V83ZM684.301 74.4996C684.301 77.3517 683.07 79.5886 681.057 81.2104C679.044 82.7763 676.303 83.6152 672.612 83.6152C668.474 83.6152 664.112 82.3289 660.98 79.3649L664.336 74.0522C666.573 75.9536 670.264 77.4076 672.501 77.4076C674.738 77.4076 676.303 76.8484 676.303 75.0588C676.303 73.2692 672.277 72.3745 671.27 72.0389C670.208 71.7593 668.642 71.3119 667.356 70.7527C666.069 70.1934 662.658 68.4598 662.658 63.5385C662.658 58.1698 667.356 54.8703 673.116 54.8703C678.876 54.8703 682.119 56.9954 683.685 58.2816L680.777 63.5385C679.211 62.3081 676.08 60.8541 673.843 60.8541C671.718 60.8541 670.543 61.4134 670.543 62.8674C670.543 64.3214 672.668 64.9925 674.57 65.5517C676.471 66.111 677.31 66.3906 678.484 66.838C679.715 67.2854 681.113 68.0124 682.064 68.9072C682.958 69.802 684.301 71.5915 684.301 74.4996ZM732.796 83H723.792V68.0124C723.792 65.0484 723.233 62.2522 720.157 62.2522C717.026 62.2522 715.683 65.0484 715.683 68.8512V83H706.736V68.0124C706.736 64.601 705.953 62.2522 703.045 62.2522C699.913 62.2522 698.571 65.0484 698.571 68.8512V83H689.623V55.4295H698.571L698.515 59.4001L698.627 59.3442C700.025 57.0513 702.709 54.9262 706.232 54.9262C710.035 54.9262 713.055 56.2124 714.453 59.9593C716.41 56.6039 719.151 54.9262 723.233 54.9262C730.28 54.9262 732.796 59.7356 732.796 66.3906V83Z" fill="white"/>
<circle cx="382" cy="253" r="42" fill="#3D7FFC" stroke="white" stroke-width="4"/>
<path d="M384.02 240.819L373.936 268H367.869L357.784 240.819H364.56L370.942 259.531L377.284 240.819H384.02ZM404.497 259.727C404.497 262.327 403.276 264.691 401.306 266.227C399.376 267.764 396.855 268.473 393.94 268.473C390 268.473 386.494 266.424 384.288 264.376L387.44 259.727C389.41 261.776 392.443 263.155 394.531 263.155C396.579 263.155 398.155 262.17 398.155 260.358C398.155 258.506 396.146 257.797 394.964 257.364C393.782 256.931 391.734 256.222 390.828 255.828C390.158 255.512 388.779 255 387.597 253.858C386.416 252.755 385.47 251.179 385.47 248.619C385.47 246.019 386.731 243.97 388.307 242.67C389.843 241.37 392.325 240.504 395.476 240.504C398.628 240.504 402.252 242.001 404.103 243.852L401.385 248.304C399.809 246.728 397.367 245.546 395.318 245.546C393.27 245.546 391.773 246.334 391.773 247.988C391.773 249.643 393.309 250.273 394.531 250.746C395.712 251.219 397.721 251.928 398.588 252.282C399.337 252.558 401.149 253.267 402.37 254.488C403.512 255.631 404.497 257.285 404.497 259.727Z" fill="white"/>
<g filter="url(#filter3_dd_2209_1715)">
<rect x="54" y="145" width="254" height="41" rx="5.52809" fill="url(#paint0_linear_2209_1715)"/>
<rect x="53.3071" y="144.307" width="255.386" height="42.3857" rx="6.22094" stroke="url(#paint1_linear_2209_1715)" stroke-width="1.38571"/>
</g>
<rect x="54.5" y="222.5" width="253" height="39" rx="5.03" fill="url(#paint2_linear_2209_1715)" stroke="url(#paint3_linear_2209_1715)"/>
<path d="M181.281 297L181.281 263" stroke="url(#paint4_linear_2209_1715)" stroke-width="2.06081" stroke-dasharray="4.12 4.12"/>
<g filter="url(#filter4_dd_2209_1715)">
<rect x="54" y="298" width="254" height="41" rx="5.52809" fill="url(#paint5_linear_2209_1715)"/>
<rect x="53.3071" y="297.307" width="255.386" height="42.3857" rx="6.22094" stroke="url(#paint6_linear_2209_1715)" stroke-width="1.38571"/>
</g>
<path d="M180.553 214.392C180.955 214.794 181.607 214.794 182.01 214.392L188.567 207.834C188.97 207.432 188.97 206.779 188.567 206.377C188.165 205.974 187.513 205.974 187.11 206.377L181.281 212.206L175.452 206.377C175.05 205.974 174.398 205.974 173.995 206.377C173.593 206.779 173.593 207.432 173.995 207.834L180.553 214.392ZM180.251 186.944L180.251 213.663L182.312 213.663L182.312 186.944L180.251 186.944Z" fill="url(#paint7_linear_2209_1715)"/>
<path d="M181.281 142.719L181.281 116" stroke="url(#paint8_linear_2209_1715)" stroke-width="2.06081" stroke-dasharray="4.12 4.12"/>
<path d="M180.553 366.414C180.955 366.816 181.607 366.816 182.01 366.414L188.567 359.857C188.97 359.454 188.97 358.802 188.567 358.399C188.165 357.997 187.513 357.997 187.11 358.399L181.281 364.228L175.452 358.399C175.05 357.997 174.398 357.997 173.995 358.399C173.593 358.802 173.593 359.454 173.995 359.857L180.553 366.414ZM180.251 338.966L180.251 365.685L182.312 365.685L182.312 338.966L180.251 338.966Z" fill="url(#paint9_linear_2209_1715)"/>
<path d="M146.801 159.819H143.17V157.812H152.879V159.819H149.267V171H146.801V159.819ZM159.827 161.577C162.484 161.577 163.153 163.298 163.153 165.515V171H160.706V166.05C160.706 164.674 160.458 163.584 159.043 163.584C157.533 163.584 157.017 164.846 157.017 166.394V171H154.59V157.812H157.017V163.145H157.056C157.553 162.17 158.489 161.577 159.827 161.577ZM165.74 161.749H168.167L168.129 163.24H168.186C168.549 162.246 169.467 161.577 170.461 161.577C171.091 161.577 171.435 161.749 171.435 161.749L171.263 163.871H171.149C170.881 163.794 170.461 163.756 170.136 163.756C169.409 163.756 168.855 164.062 168.511 164.655C168.282 165.113 168.167 165.744 168.167 166.451V171H165.74V161.749ZM174.846 167.158C175.075 168.63 176.203 169.337 177.598 169.337C178.841 169.337 179.949 168.783 180.389 168.401L181.344 169.719C180.828 170.255 179.433 171.21 177.178 171.21C174.387 171.21 172.323 169.509 172.323 166.528C172.323 163.565 174.483 161.577 177.12 161.577C179.968 161.577 181.688 163.45 181.688 165.916C181.688 166.394 181.65 167.158 181.65 167.158H174.846ZM177.101 163.393C175.649 163.393 174.884 164.406 174.808 165.572H179.242C179.204 164.559 178.821 163.393 177.101 163.393ZM189.252 169.93C188.87 170.599 187.799 171.21 186.423 171.21C184.627 171.21 183.174 170.235 183.174 168.305C183.174 166.375 185.066 165.629 186.978 165.496L189.195 165.343V165.094C189.195 163.909 188.411 163.355 187.13 163.355C185.907 163.355 184.894 163.814 184.493 164.119L183.747 162.552C184.455 162.132 185.754 161.577 187.36 161.577C189.003 161.577 189.94 161.998 190.628 162.648C191.297 163.298 191.641 164.138 191.641 165.706V171H189.29L189.252 169.93ZM187.551 166.929C186.251 167.005 185.621 167.445 185.621 168.229C185.621 169.012 186.213 169.547 187.226 169.547C188.182 169.547 188.889 168.993 189.214 168.534V166.833L187.551 166.929ZM201.152 169.547H201.095C200.349 170.732 199.203 171.21 197.922 171.21C195.208 171.21 193.545 169.108 193.545 166.356C193.545 163.737 195.284 161.577 198.094 161.577C199.336 161.577 200.388 162.036 201.037 163.03H201.076C201.057 162.609 201.057 162.113 201.057 161.463V157.812H203.484V171H201.171L201.152 169.547ZM198.61 169.223C200.082 169.223 201.114 168.095 201.114 166.356C201.114 164.807 200.101 163.45 198.534 163.45C196.947 163.45 196.03 164.807 196.03 166.356C196.03 167.961 197.024 169.223 198.61 169.223ZM212.955 159.685H210.47V157.812H215.363V171H212.955V159.685Z" fill="#00E0FF"/>
<path d="M146.801 312.819H143.17V310.812H152.879V312.819H149.267V324H146.801V312.819ZM159.827 314.577C162.484 314.577 163.153 316.298 163.153 318.515V324H160.706V319.05C160.706 317.674 160.458 316.584 159.043 316.584C157.533 316.584 157.017 317.846 157.017 319.394V324H154.59V310.812H157.017V316.145H157.056C157.553 315.17 158.489 314.577 159.827 314.577ZM165.74 314.749H168.167L168.129 316.24H168.186C168.549 315.246 169.467 314.577 170.461 314.577C171.091 314.577 171.435 314.749 171.435 314.749L171.263 316.871H171.149C170.881 316.794 170.461 316.756 170.136 316.756C169.409 316.756 168.855 317.062 168.511 317.655C168.282 318.113 168.167 318.744 168.167 319.451V324H165.74V314.749ZM174.846 320.158C175.075 321.63 176.203 322.337 177.598 322.337C178.841 322.337 179.949 321.783 180.389 321.401L181.344 322.719C180.828 323.255 179.433 324.21 177.178 324.21C174.387 324.21 172.323 322.509 172.323 319.528C172.323 316.565 174.483 314.577 177.12 314.577C179.968 314.577 181.688 316.45 181.688 318.916C181.688 319.394 181.65 320.158 181.65 320.158H174.846ZM177.101 316.393C175.649 316.393 174.884 317.406 174.808 318.572H179.242C179.204 317.559 178.821 316.393 177.101 316.393ZM189.252 322.93C188.87 323.599 187.799 324.21 186.423 324.21C184.627 324.21 183.174 323.235 183.174 321.305C183.174 319.375 185.066 318.629 186.978 318.496L189.195 318.343V318.094C189.195 316.909 188.411 316.355 187.13 316.355C185.907 316.355 184.894 316.814 184.493 317.119L183.747 315.552C184.455 315.132 185.754 314.577 187.36 314.577C189.003 314.577 189.94 314.998 190.628 315.648C191.297 316.298 191.641 317.138 191.641 318.706V324H189.29L189.252 322.93ZM187.551 319.929C186.251 320.005 185.621 320.445 185.621 321.229C185.621 322.012 186.213 322.547 187.226 322.547C188.182 322.547 188.889 321.993 189.214 321.534V319.833L187.551 319.929ZM201.152 322.547H201.095C200.349 323.732 199.203 324.21 197.922 324.21C195.208 324.21 193.545 322.108 193.545 319.356C193.545 316.737 195.284 314.577 198.094 314.577C199.336 314.577 200.388 315.036 201.037 316.03H201.076C201.057 315.609 201.057 315.113 201.057 314.463V310.812H203.484V324H201.171L201.152 322.547ZM198.61 322.223C200.082 322.223 201.114 321.095 201.114 319.356C201.114 317.807 200.101 316.45 198.534 316.45C196.947 316.45 196.03 317.807 196.03 319.356C196.03 320.961 197.024 322.223 198.61 322.223ZM212.955 312.685H210.47V310.812H215.363V324H212.955V312.685Z" fill="#00E0FF"/>
<path d="M145.845 234.819H142.214V232.812H151.923V234.819H148.311V246H145.845V234.819ZM158.871 236.577C161.528 236.577 162.197 238.298 162.197 240.515V246H159.75V241.05C159.75 239.674 159.502 238.584 158.088 238.584C156.578 238.584 156.062 239.846 156.062 241.394V246H153.634V232.812H156.062V238.145H156.1C156.597 237.17 157.533 236.577 158.871 236.577ZM164.784 236.749H167.211L167.173 238.24H167.23C167.593 237.246 168.511 236.577 169.505 236.577C170.135 236.577 170.48 236.749 170.48 236.749L170.308 238.871H170.193C169.925 238.794 169.505 238.756 169.18 238.756C168.454 238.756 167.899 239.062 167.555 239.655C167.326 240.113 167.211 240.744 167.211 241.451V246H164.784V236.749ZM173.89 242.158C174.119 243.63 175.247 244.337 176.642 244.337C177.885 244.337 178.993 243.783 179.433 243.401L180.388 244.719C179.872 245.255 178.477 246.21 176.222 246.21C173.431 246.21 171.367 244.509 171.367 241.528C171.367 238.565 173.527 236.577 176.165 236.577C179.012 236.577 180.732 238.45 180.732 240.916C180.732 241.394 180.694 242.158 180.694 242.158H173.89ZM176.145 238.393C174.693 238.393 173.928 239.406 173.852 240.572H178.286C178.248 239.559 177.866 238.393 176.145 238.393ZM188.296 244.93C187.914 245.599 186.844 246.21 185.467 246.21C183.671 246.21 182.218 245.235 182.218 243.305C182.218 241.375 184.11 240.629 186.022 240.496L188.239 240.343V240.094C188.239 238.909 187.455 238.355 186.175 238.355C184.951 238.355 183.938 238.814 183.537 239.119L182.792 237.552C183.499 237.132 184.798 236.577 186.404 236.577C188.048 236.577 188.984 236.998 189.672 237.648C190.341 238.298 190.685 239.138 190.685 240.706V246H188.334L188.296 244.93ZM186.595 241.929C185.295 242.005 184.665 242.445 184.665 243.229C184.665 244.012 185.257 244.547 186.27 244.547C187.226 244.547 187.933 243.993 188.258 243.534V241.833L186.595 241.929ZM200.196 244.547H200.139C199.393 245.732 198.247 246.21 196.966 246.21C194.252 246.21 192.589 244.108 192.589 241.356C192.589 238.737 194.329 236.577 197.138 236.577C198.38 236.577 199.432 237.036 200.082 238.03H200.12C200.101 237.609 200.101 237.113 200.101 236.463V232.812H202.528V246H200.215L200.196 244.547ZM197.654 244.223C199.126 244.223 200.158 243.095 200.158 241.356C200.158 239.807 199.145 238.45 197.578 238.45C195.991 238.45 195.074 239.807 195.074 241.356C195.074 242.961 196.068 244.223 197.654 244.223ZM209.457 244.414L214.025 240.19C215.076 239.215 216.032 238.126 216.032 236.826C216.032 235.507 215.191 234.666 213.7 234.666C212.037 234.666 211.101 235.717 210.47 236.424L209.323 234.915C209.744 234.303 211.101 232.621 213.891 232.621C216.701 232.621 218.516 234.169 218.516 236.501C218.516 238.756 216.739 240.419 215.917 241.203L212.974 243.955H219.071V246H209.782L209.457 244.414Z" fill="#9D97F4"/>
<g filter="url(#filter5_dd_2209_1715)">
<rect x="460" y="145.483" width="110.562" height="40.5393" rx="5.52809" fill="url(#paint10_linear_2209_1715)"/>
<rect x="459.307" y="144.79" width="111.948" height="41.925" rx="6.22094" stroke="url(#paint11_linear_2209_1715)" stroke-width="1.38571"/>
</g>
<g filter="url(#filter6_dd_2209_1715)">
<rect x="460" y="221.955" width="110.562" height="40.5393" rx="5.52809" fill="url(#paint12_linear_2209_1715)"/>
<rect x="459.307" y="221.262" width="111.948" height="41.925" rx="6.22094" stroke="url(#paint13_linear_2209_1715)" stroke-width="1.38571"/>
</g>
<rect x="595.938" y="145.062" width="109.562" height="39.5393" rx="5.03" fill="url(#paint14_linear_2209_1715)" stroke="url(#paint15_linear_2209_1715)"/>
<rect x="595.938" y="222.455" width="109.562" height="39.5393" rx="5.03" fill="url(#paint16_linear_2209_1715)" stroke="url(#paint17_linear_2209_1715)"/>
<g filter="url(#filter7_dd_2209_1715)">
<rect x="460" y="298.427" width="110.562" height="40.5393" rx="5.52809" fill="url(#paint18_linear_2209_1715)"/>
<rect x="459.307" y="297.734" width="111.948" height="41.925" rx="6.22094" stroke="url(#paint19_linear_2209_1715)" stroke-width="1.38571"/>
</g>
<rect x="595.938" y="298.006" width="109.562" height="39.5393" rx="5.03" fill="url(#paint20_linear_2209_1715)" stroke="url(#paint21_linear_2209_1715)"/>
<path d="M514.553 214.392C514.955 214.794 515.607 214.794 516.01 214.392L522.567 207.834C522.97 207.432 522.97 206.779 522.567 206.377C522.165 205.974 521.513 205.974 521.11 206.377L515.281 212.206L509.452 206.377C509.05 205.974 508.398 205.974 507.995 206.377C507.593 206.779 507.593 207.432 507.995 207.834L514.553 214.392ZM514.251 186.944L514.251 213.663L516.312 213.663L516.312 186.944L514.251 186.944Z" fill="url(#paint22_linear_2209_1715)"/>
<path d="M649.99 213.47C650.393 213.873 651.045 213.873 651.447 213.47L658.005 206.913C658.407 206.51 658.407 205.858 658.005 205.455C657.602 205.053 656.95 205.053 656.548 205.455L650.719 211.284L644.89 205.455C644.487 205.053 643.835 205.053 643.433 205.455C643.03 205.858 643.03 206.51 643.433 206.913L649.99 213.47ZM649.688 186.022L649.688 212.742L651.749 212.742L651.749 186.022L649.688 186.022Z" fill="url(#paint23_linear_2209_1715)"/>
<path d="M515.281 142.719L515.281 116" stroke="url(#paint24_linear_2209_1715)" stroke-width="2.06081" stroke-dasharray="4.12 4.12"/>
<path d="M650.719 142.719L650.719 116" stroke="url(#paint25_linear_2209_1715)" stroke-width="2.06081" stroke-dasharray="4.12 4.12"/>
<path d="M514.553 291.785C514.955 292.187 515.607 292.187 516.01 291.785L522.567 285.227C522.97 284.825 522.97 284.172 522.567 283.77C522.165 283.368 521.513 283.368 521.11 283.77L515.281 289.599L509.452 283.77C509.05 283.368 508.398 283.368 507.995 283.77C507.593 284.172 507.593 284.825 507.995 285.227L514.553 291.785ZM514.251 264.337L514.251 291.056L516.312 291.056L516.312 264.337L514.251 264.337Z" fill="url(#paint26_linear_2209_1715)"/>
<path d="M649.99 289.942C650.393 290.344 651.045 290.344 651.447 289.942L658.005 283.384C658.407 282.982 658.407 282.33 658.005 281.927C657.602 281.525 656.95 281.525 656.548 281.927L650.719 287.756L644.89 281.927C644.487 281.525 643.835 281.525 643.433 281.927C643.03 282.33 643.03 282.982 643.433 283.384L649.99 289.942ZM649.688 262.494L649.688 289.213L651.749 289.213L651.749 262.494L649.688 262.494Z" fill="url(#paint27_linear_2209_1715)"/>
<path d="M514.553 366.414C514.955 366.816 515.607 366.816 516.01 366.414L522.567 359.857C522.97 359.454 522.97 358.802 522.567 358.399C522.165 357.997 521.513 357.997 521.11 358.399L515.281 364.228L509.452 358.399C509.05 357.997 508.398 357.997 507.995 358.399C507.593 358.802 507.593 359.454 507.995 359.857L514.553 366.414ZM514.251 338.966L514.251 365.685L516.312 365.685L516.312 338.966L514.251 338.966Z" fill="url(#paint28_linear_2209_1715)"/>
<path d="M649.99 365.493C650.393 365.895 651.045 365.895 651.447 365.493L658.005 358.935C658.407 358.533 658.407 357.88 658.005 357.478C657.602 357.076 656.95 357.076 656.548 357.478L650.719 363.307L644.89 357.478C644.487 357.076 643.835 357.076 643.433 357.478C643.03 357.88 643.03 358.533 643.433 358.935L649.99 365.493ZM649.688 338.045L649.688 364.764L651.749 364.764L651.749 338.045L649.688 338.045Z" fill="url(#paint29_linear_2209_1715)"/>
<path d="M480.801 159.819H477.17V157.812H486.879V159.819H483.267V171H480.801V159.819ZM493.827 161.577C496.484 161.577 497.153 163.298 497.153 165.515V171H494.706V166.05C494.706 164.674 494.458 163.584 493.043 163.584C491.533 163.584 491.017 164.846 491.017 166.394V171H488.59V157.812H491.017V163.145H491.056C491.553 162.17 492.489 161.577 493.827 161.577ZM499.74 161.749H502.167L502.129 163.24H502.186C502.549 162.246 503.467 161.577 504.461 161.577C505.091 161.577 505.435 161.749 505.435 161.749L505.263 163.871H505.149C504.881 163.794 504.461 163.756 504.136 163.756C503.409 163.756 502.855 164.062 502.511 164.655C502.282 165.113 502.167 165.744 502.167 166.451V171H499.74V161.749ZM508.846 167.158C509.075 168.63 510.203 169.337 511.598 169.337C512.841 169.337 513.949 168.783 514.389 168.401L515.344 169.719C514.828 170.255 513.433 171.21 511.178 171.21C508.387 171.21 506.323 169.509 506.323 166.528C506.323 163.565 508.483 161.577 511.12 161.577C513.968 161.577 515.688 163.45 515.688 165.916C515.688 166.394 515.65 167.158 515.65 167.158H508.846ZM511.101 163.393C509.649 163.393 508.884 164.406 508.808 165.572H513.242C513.204 164.559 512.821 163.393 511.101 163.393ZM523.252 169.93C522.87 170.599 521.799 171.21 520.423 171.21C518.627 171.21 517.174 170.235 517.174 168.305C517.174 166.375 519.066 165.629 520.978 165.496L523.195 165.343V165.094C523.195 163.909 522.411 163.355 521.13 163.355C519.907 163.355 518.894 163.814 518.493 164.119L517.747 162.552C518.455 162.132 519.754 161.577 521.36 161.577C523.003 161.577 523.94 161.998 524.628 162.648C525.297 163.298 525.641 164.138 525.641 165.706V171H523.29L523.252 169.93ZM521.551 166.929C520.251 167.005 519.621 167.445 519.621 168.229C519.621 169.012 520.213 169.547 521.226 169.547C522.182 169.547 522.889 168.993 523.214 168.534V166.833L521.551 166.929ZM535.152 169.547H535.095C534.349 170.732 533.203 171.21 531.922 171.21C529.208 171.21 527.545 169.108 527.545 166.356C527.545 163.737 529.284 161.577 532.094 161.577C533.336 161.577 534.388 162.036 535.037 163.03H535.076C535.057 162.609 535.057 162.113 535.057 161.463V157.812H537.484V171H535.171L535.152 169.547ZM532.61 169.223C534.082 169.223 535.114 168.095 535.114 166.356C535.114 164.807 534.101 163.45 532.534 163.45C530.947 163.45 530.03 164.807 530.03 166.356C530.03 167.961 531.024 169.223 532.61 169.223ZM546.955 159.685H544.47V157.812H549.363V171H546.955V159.685Z" fill="#00E0FF"/>
<path d="M614.845 158.819H611.214V156.812H620.923V158.819H617.311V170H614.845V158.819ZM627.871 160.577C630.528 160.577 631.197 162.298 631.197 164.515V170H628.75V165.05C628.75 163.674 628.502 162.584 627.088 162.584C625.578 162.584 625.062 163.846 625.062 165.394V170H622.634V156.812H625.062V162.145H625.1C625.597 161.17 626.533 160.577 627.871 160.577ZM633.784 160.749H636.211L636.173 162.24H636.23C636.593 161.246 637.511 160.577 638.505 160.577C639.135 160.577 639.48 160.749 639.48 160.749L639.308 162.871H639.193C638.925 162.794 638.505 162.756 638.18 162.756C637.454 162.756 636.899 163.062 636.555 163.655C636.326 164.113 636.211 164.744 636.211 165.451V170H633.784V160.749ZM642.89 166.158C643.119 167.63 644.247 168.337 645.642 168.337C646.885 168.337 647.993 167.783 648.433 167.401L649.388 168.719C648.872 169.255 647.477 170.21 645.222 170.21C642.431 170.21 640.367 168.509 640.367 165.528C640.367 162.565 642.527 160.577 645.165 160.577C648.012 160.577 649.732 162.45 649.732 164.916C649.732 165.394 649.694 166.158 649.694 166.158H642.89ZM645.145 162.393C643.693 162.393 642.928 163.406 642.852 164.572H647.286C647.248 163.559 646.866 162.393 645.145 162.393ZM657.296 168.93C656.914 169.599 655.844 170.21 654.467 170.21C652.671 170.21 651.218 169.235 651.218 167.305C651.218 165.375 653.11 164.629 655.022 164.496L657.239 164.343V164.094C657.239 162.909 656.455 162.355 655.175 162.355C653.951 162.355 652.938 162.814 652.537 163.119L651.792 161.552C652.499 161.132 653.798 160.577 655.404 160.577C657.048 160.577 657.984 160.998 658.672 161.648C659.341 162.298 659.685 163.138 659.685 164.706V170H657.334L657.296 168.93ZM655.595 165.929C654.295 166.005 653.665 166.445 653.665 167.229C653.665 168.012 654.257 168.547 655.27 168.547C656.226 168.547 656.933 167.993 657.258 167.534V165.833L655.595 165.929ZM669.196 168.547H669.139C668.393 169.732 667.247 170.21 665.966 170.21C663.252 170.21 661.589 168.108 661.589 165.356C661.589 162.737 663.329 160.577 666.138 160.577C667.38 160.577 668.432 161.036 669.082 162.03H669.12C669.101 161.609 669.101 161.113 669.101 160.463V156.812H671.528V170H669.215L669.196 168.547ZM666.654 168.223C668.126 168.223 669.158 167.095 669.158 165.356C669.158 163.807 668.145 162.45 666.578 162.45C664.991 162.45 664.074 163.807 664.074 165.356C664.074 166.961 665.068 168.223 666.654 168.223ZM678.457 168.414L683.025 164.19C684.076 163.215 685.032 162.126 685.032 160.826C685.032 159.507 684.191 158.666 682.7 158.666C681.037 158.666 680.101 159.717 679.47 160.424L678.323 158.915C678.744 158.303 680.101 156.621 682.891 156.621C685.701 156.621 687.516 158.169 687.516 160.501C687.516 162.756 685.739 164.419 684.917 165.203L681.974 167.955H688.071V170H678.782L678.457 168.414Z" fill="#9D97F4"/>
<path d="M615.845 235.819H612.214V233.812H621.923V235.819H618.311V247H615.845V235.819ZM628.871 237.577C631.528 237.577 632.197 239.298 632.197 241.515V247H629.75V242.05C629.75 240.674 629.502 239.584 628.088 239.584C626.578 239.584 626.062 240.846 626.062 242.394V247H623.634V233.812H626.062V239.145H626.1C626.597 238.17 627.533 237.577 628.871 237.577ZM634.784 237.749H637.211L637.173 239.24H637.23C637.593 238.246 638.511 237.577 639.505 237.577C640.135 237.577 640.48 237.749 640.48 237.749L640.308 239.871H640.193C639.925 239.794 639.505 239.756 639.18 239.756C638.454 239.756 637.899 240.062 637.555 240.655C637.326 241.113 637.211 241.744 637.211 242.451V247H634.784V237.749ZM643.89 243.158C644.119 244.63 645.247 245.337 646.642 245.337C647.885 245.337 648.993 244.783 649.433 244.401L650.388 245.719C649.872 246.255 648.477 247.21 646.222 247.21C643.431 247.21 641.367 245.509 641.367 242.528C641.367 239.565 643.527 237.577 646.165 237.577C649.012 237.577 650.732 239.45 650.732 241.916C650.732 242.394 650.694 243.158 650.694 243.158H643.89ZM646.145 239.393C644.693 239.393 643.928 240.406 643.852 241.572H648.286C648.248 240.559 647.866 239.393 646.145 239.393ZM658.296 245.93C657.914 246.599 656.844 247.21 655.467 247.21C653.671 247.21 652.218 246.235 652.218 244.305C652.218 242.375 654.11 241.629 656.022 241.496L658.239 241.343V241.094C658.239 239.909 657.455 239.355 656.175 239.355C654.951 239.355 653.938 239.814 653.537 240.119L652.792 238.552C653.499 238.132 654.798 237.577 656.404 237.577C658.048 237.577 658.984 237.998 659.672 238.648C660.341 239.298 660.685 240.138 660.685 241.706V247H658.334L658.296 245.93ZM656.595 242.929C655.295 243.005 654.665 243.445 654.665 244.229C654.665 245.012 655.257 245.547 656.27 245.547C657.226 245.547 657.933 244.993 658.258 244.534V242.833L656.595 242.929ZM670.196 245.547H670.139C669.393 246.732 668.247 247.21 666.966 247.21C664.252 247.21 662.589 245.108 662.589 242.356C662.589 239.737 664.329 237.577 667.138 237.577C668.38 237.577 669.432 238.036 670.082 239.03H670.12C670.101 238.609 670.101 238.113 670.101 237.463V233.812H672.528V247H670.215L670.196 245.547ZM667.654 245.223C669.126 245.223 670.158 244.095 670.158 242.356C670.158 240.807 669.145 239.45 667.578 239.45C665.991 239.45 665.074 240.807 665.074 242.356C665.074 243.961 666.068 245.223 667.654 245.223ZM679.457 245.414L684.025 241.19C685.076 240.215 686.032 239.126 686.032 237.826C686.032 236.507 685.191 235.666 683.7 235.666C682.037 235.666 681.101 236.717 680.47 237.424L679.323 235.915C679.744 235.303 681.101 233.621 683.891 233.621C686.701 233.621 688.516 235.169 688.516 237.501C688.516 239.756 686.739 241.419 685.917 242.203L682.974 244.955H689.071V247H679.782L679.457 245.414Z" fill="#9D97F4"/>
<path d="M615.845 312.819H612.214V310.812H621.923V312.819H618.311V324H615.845V312.819ZM628.871 314.577C631.528 314.577 632.197 316.298 632.197 318.515V324H629.75V319.05C629.75 317.674 629.502 316.584 628.088 316.584C626.578 316.584 626.062 317.846 626.062 319.394V324H623.634V310.812H626.062V316.145H626.1C626.597 315.17 627.533 314.577 628.871 314.577ZM634.784 314.749H637.211L637.173 316.24H637.23C637.593 315.246 638.511 314.577 639.505 314.577C640.135 314.577 640.48 314.749 640.48 314.749L640.308 316.871H640.193C639.925 316.794 639.505 316.756 639.18 316.756C638.454 316.756 637.899 317.062 637.555 317.655C637.326 318.113 637.211 318.744 637.211 319.451V324H634.784V314.749ZM643.89 320.158C644.119 321.63 645.247 322.337 646.642 322.337C647.885 322.337 648.993 321.783 649.433 321.401L650.388 322.719C649.872 323.255 648.477 324.21 646.222 324.21C643.431 324.21 641.367 322.509 641.367 319.528C641.367 316.565 643.527 314.577 646.165 314.577C649.012 314.577 650.732 316.45 650.732 318.916C650.732 319.394 650.694 320.158 650.694 320.158H643.89ZM646.145 316.393C644.693 316.393 643.928 317.406 643.852 318.572H648.286C648.248 317.559 647.866 316.393 646.145 316.393ZM658.296 322.93C657.914 323.599 656.844 324.21 655.467 324.21C653.671 324.21 652.218 323.235 652.218 321.305C652.218 319.375 654.11 318.629 656.022 318.496L658.239 318.343V318.094C658.239 316.909 657.455 316.355 656.175 316.355C654.951 316.355 653.938 316.814 653.537 317.119L652.792 315.552C653.499 315.132 654.798 314.577 656.404 314.577C658.048 314.577 658.984 314.998 659.672 315.648C660.341 316.298 660.685 317.138 660.685 318.706V324H658.334L658.296 322.93ZM656.595 319.929C655.295 320.005 654.665 320.445 654.665 321.229C654.665 322.012 655.257 322.547 656.27 322.547C657.226 322.547 657.933 321.993 658.258 321.534V319.833L656.595 319.929ZM670.196 322.547H670.139C669.393 323.732 668.247 324.21 666.966 324.21C664.252 324.21 662.589 322.108 662.589 319.356C662.589 316.737 664.329 314.577 667.138 314.577C668.38 314.577 669.432 315.036 670.082 316.03H670.12C670.101 315.609 670.101 315.113 670.101 314.463V310.812H672.528V324H670.215L670.196 322.547ZM667.654 322.223C669.126 322.223 670.158 321.095 670.158 319.356C670.158 317.807 669.145 316.45 667.578 316.45C665.991 316.45 665.074 317.807 665.074 319.356C665.074 320.961 666.068 322.223 667.654 322.223ZM679.457 322.414L684.025 318.19C685.076 317.215 686.032 316.126 686.032 314.826C686.032 313.507 685.191 312.666 683.7 312.666C682.037 312.666 681.101 313.717 680.47 314.424L679.323 312.915C679.744 312.303 681.101 310.621 683.891 310.621C686.701 310.621 688.516 312.169 688.516 314.501C688.516 316.756 686.739 318.419 685.917 319.203L682.974 321.955H689.071V324H679.782L679.457 322.414Z" fill="#9D97F4"/>
<path d="M483.801 235.819H480.17V233.812H489.879V235.819H486.267V247H483.801V235.819ZM496.827 237.577C499.484 237.577 500.153 239.298 500.153 241.515V247H497.706V242.05C497.706 240.674 497.458 239.584 496.043 239.584C494.533 239.584 494.017 240.846 494.017 242.394V247H491.59V233.812H494.017V239.145H494.056C494.553 238.17 495.489 237.577 496.827 237.577ZM502.74 237.749H505.167L505.129 239.24H505.186C505.549 238.246 506.467 237.577 507.461 237.577C508.091 237.577 508.435 237.749 508.435 237.749L508.263 239.871H508.149C507.881 239.794 507.461 239.756 507.136 239.756C506.409 239.756 505.855 240.062 505.511 240.655C505.282 241.113 505.167 241.744 505.167 242.451V247H502.74V237.749ZM511.846 243.158C512.075 244.63 513.203 245.337 514.598 245.337C515.841 245.337 516.949 244.783 517.389 244.401L518.344 245.719C517.828 246.255 516.433 247.21 514.178 247.21C511.387 247.21 509.323 245.509 509.323 242.528C509.323 239.565 511.483 237.577 514.12 237.577C516.968 237.577 518.688 239.45 518.688 241.916C518.688 242.394 518.65 243.158 518.65 243.158H511.846ZM514.101 239.393C512.649 239.393 511.884 240.406 511.808 241.572H516.242C516.204 240.559 515.821 239.393 514.101 239.393ZM526.252 245.93C525.87 246.599 524.799 247.21 523.423 247.21C521.627 247.21 520.174 246.235 520.174 244.305C520.174 242.375 522.066 241.629 523.978 241.496L526.195 241.343V241.094C526.195 239.909 525.411 239.355 524.13 239.355C522.907 239.355 521.894 239.814 521.493 240.119L520.747 238.552C521.455 238.132 522.754 237.577 524.36 237.577C526.003 237.577 526.94 237.998 527.628 238.648C528.297 239.298 528.641 240.138 528.641 241.706V247H526.29L526.252 245.93ZM524.551 242.929C523.251 243.005 522.621 243.445 522.621 244.229C522.621 245.012 523.213 245.547 524.226 245.547C525.182 245.547 525.889 244.993 526.214 244.534V242.833L524.551 242.929ZM538.152 245.547H538.095C537.349 246.732 536.203 247.21 534.922 247.21C532.208 247.21 530.545 245.108 530.545 242.356C530.545 239.737 532.284 237.577 535.094 237.577C536.336 237.577 537.388 238.036 538.037 239.03H538.076C538.057 238.609 538.057 238.113 538.057 237.463V233.812H540.484V247H538.171L538.152 245.547ZM535.61 245.223C537.082 245.223 538.114 244.095 538.114 242.356C538.114 240.807 537.101 239.45 535.534 239.45C533.947 239.45 533.03 240.807 533.03 242.356C533.03 243.961 534.024 245.223 535.61 245.223ZM549.955 235.685H547.47V233.812H552.363V247H549.955V235.685Z" fill="#00E0FF"/>
<path d="M483.801 312.819H480.17V310.812H489.879V312.819H486.267V324H483.801V312.819ZM496.827 314.577C499.484 314.577 500.153 316.298 500.153 318.515V324H497.706V319.05C497.706 317.674 497.458 316.584 496.043 316.584C494.533 316.584 494.017 317.846 494.017 319.394V324H491.59V310.812H494.017V316.145H494.056C494.553 315.17 495.489 314.577 496.827 314.577ZM502.74 314.749H505.167L505.129 316.24H505.186C505.549 315.246 506.467 314.577 507.461 314.577C508.091 314.577 508.435 314.749 508.435 314.749L508.263 316.871H508.149C507.881 316.794 507.461 316.756 507.136 316.756C506.409 316.756 505.855 317.062 505.511 317.655C505.282 318.113 505.167 318.744 505.167 319.451V324H502.74V314.749ZM511.846 320.158C512.075 321.63 513.203 322.337 514.598 322.337C515.841 322.337 516.949 321.783 517.389 321.401L518.344 322.719C517.828 323.255 516.433 324.21 514.178 324.21C511.387 324.21 509.323 322.509 509.323 319.528C509.323 316.565 511.483 314.577 514.12 314.577C516.968 314.577 518.688 316.45 518.688 318.916C518.688 319.394 518.65 320.158 518.65 320.158H511.846ZM514.101 316.393C512.649 316.393 511.884 317.406 511.808 318.572H516.242C516.204 317.559 515.821 316.393 514.101 316.393ZM526.252 322.93C525.87 323.599 524.799 324.21 523.423 324.21C521.627 324.21 520.174 323.235 520.174 321.305C520.174 319.375 522.066 318.629 523.978 318.496L526.195 318.343V318.094C526.195 316.909 525.411 316.355 524.13 316.355C522.907 316.355 521.894 316.814 521.493 317.119L520.747 315.552C521.455 315.132 522.754 314.577 524.36 314.577C526.003 314.577 526.94 314.998 527.628 315.648C528.297 316.298 528.641 317.138 528.641 318.706V324H526.29L526.252 322.93ZM524.551 319.929C523.251 320.005 522.621 320.445 522.621 321.229C522.621 322.012 523.213 322.547 524.226 322.547C525.182 322.547 525.889 321.993 526.214 321.534V319.833L524.551 319.929ZM538.152 322.547H538.095C537.349 323.732 536.203 324.21 534.922 324.21C532.208 324.21 530.545 322.108 530.545 319.356C530.545 316.737 532.284 314.577 535.094 314.577C536.336 314.577 537.388 315.036 538.037 316.03H538.076C538.057 315.609 538.057 315.113 538.057 314.463V310.812H540.484V324H538.171L538.152 322.547ZM535.61 322.223C537.082 322.223 538.114 321.095 538.114 319.356C538.114 317.807 537.101 316.45 535.534 316.45C533.947 316.45 533.03 317.807 533.03 319.356C533.03 320.961 534.024 322.223 535.61 322.223ZM549.955 312.685H547.47V310.812H552.363V324H549.955V312.685Z" fill="#00E0FF"/>
</g>
<defs>
<filter id="filter0_f_2209_1715" x="-200.885" y="-255.885" width="695.771" height="699.771" filterUnits="userSpaceOnUse" color-interpolation-filters="sRGB">
<feFlood flood-opacity="0" result="BackgroundImageFix"/>
<feBlend mode="normal" in="SourceGraphic" in2="BackgroundImageFix" result="shape"/>
<feGaussianBlur stdDeviation="93.4427" result="effect1_foregroundBlur_2209_1715"/>
</filter>
<filter id="filter1_f_2209_1715" x="-470.25" y="-554.25" width="1231.5" height="1236.5" filterUnits="userSpaceOnUse" color-interpolation-filters="sRGB">
<feFlood flood-opacity="0" result="BackgroundImageFix"/>
<feBlend mode="normal" in="SourceGraphic" in2="BackgroundImageFix" result="shape"/>
<feGaussianBlur stdDeviation="203.125" result="effect1_foregroundBlur_2209_1715"/>
</filter>
<filter id="filter2_f_2209_1715" x="283" y="-124" width="880" height="883" filterUnits="userSpaceOnUse" color-interpolation-filters="sRGB">
<feFlood flood-opacity="0" result="BackgroundImageFix"/>
<feBlend mode="normal" in="SourceGraphic" in2="BackgroundImageFix" result="shape"/>
<feGaussianBlur stdDeviation="150" result="effect1_foregroundBlur_2209_1715"/>
</filter>
<filter id="filter3_dd_2209_1715" x="46.0311" y="137.031" width="277.461" height="64.4613" filterUnits="userSpaceOnUse" color-interpolation-filters="sRGB">
<feFlood flood-opacity="0" result="BackgroundImageFix"/>
<feColorMatrix in="SourceAlpha" type="matrix" values="0 0 0 0 0 0 0 0 0 0 0 0 0 0 0 0 0 0 127 0" result="hardAlpha"/>
<feOffset dx="4.70223" dy="4.70223"/>
<feGaussianBlur stdDeviation="4.70223"/>
<feColorMatrix type="matrix" values="0 0 0 0 0 0 0 0 0 0.296699 0 0 0 0 0.858629 0 0 0 0.08 0"/>
<feBlend mode="normal" in2="BackgroundImageFix" result="effect1_dropShadow_2209_1715"/>
<feColorMatrix in="SourceAlpha" type="matrix" values="0 0 0 0 0 0 0 0 0 0 0 0 0 0 0 0 0 0 127 0" result="hardAlpha"/>
<feOffset/>
<feGaussianBlur stdDeviation="3.29156"/>
<feComposite in2="hardAlpha" operator="out"/>
<feColorMatrix type="matrix" values="0 0 0 0 0.0354167 0 0 0 0 0.105426 0 0 0 0 0.2125 0 0 0 0.07 0"/>
<feBlend mode="normal" in2="effect1_dropShadow_2209_1715" result="effect2_dropShadow_2209_1715"/>
<feBlend mode="normal" in="SourceGraphic" in2="effect2_dropShadow_2209_1715" result="shape"/>
</filter>
<filter id="filter4_dd_2209_1715" x="46.0311" y="290.031" width="277.461" height="64.4613" filterUnits="userSpaceOnUse" color-interpolation-filters="sRGB">
<feFlood flood-opacity="0" result="BackgroundImageFix"/>
<feColorMatrix in="SourceAlpha" type="matrix" values="0 0 0 0 0 0 0 0 0 0 0 0 0 0 0 0 0 0 127 0" result="hardAlpha"/>
<feOffset dx="4.70223" dy="4.70223"/>
<feGaussianBlur stdDeviation="4.70223"/>
<feColorMatrix type="matrix" values="0 0 0 0 0 0 0 0 0 0.296699 0 0 0 0 0.858629 0 0 0 0.08 0"/>
<feBlend mode="normal" in2="BackgroundImageFix" result="effect1_dropShadow_2209_1715"/>
<feColorMatrix in="SourceAlpha" type="matrix" values="0 0 0 0 0 0 0 0 0 0 0 0 0 0 0 0 0 0 127 0" result="hardAlpha"/>
<feOffset/>
<feGaussianBlur stdDeviation="3.29156"/>
<feComposite in2="hardAlpha" operator="out"/>
<feColorMatrix type="matrix" values="0 0 0 0 0.0354167 0 0 0 0 0.105426 0 0 0 0 0.2125 0 0 0 0.07 0"/>
<feBlend mode="normal" in2="effect1_dropShadow_2209_1715" result="effect2_dropShadow_2209_1715"/>
<feBlend mode="normal" in="SourceGraphic" in2="effect2_dropShadow_2209_1715" result="shape"/>
</filter>
<filter id="filter5_dd_2209_1715" x="452.031" y="137.514" width="134.023" height="64.0003" filterUnits="userSpaceOnUse" color-interpolation-filters="sRGB">
<feFlood flood-opacity="0" result="BackgroundImageFix"/>
<feColorMatrix in="SourceAlpha" type="matrix" values="0 0 0 0 0 0 0 0 0 0 0 0 0 0 0 0 0 0 127 0" result="hardAlpha"/>
<feOffset dx="4.70223" dy="4.70223"/>
<feGaussianBlur stdDeviation="4.70223"/>
<feColorMatrix type="matrix" values="0 0 0 0 0 0 0 0 0 0.296699 0 0 0 0 0.858629 0 0 0 0.08 0"/>
<feBlend mode="normal" in2="BackgroundImageFix" result="effect1_dropShadow_2209_1715"/>
<feColorMatrix in="SourceAlpha" type="matrix" values="0 0 0 0 0 0 0 0 0 0 0 0 0 0 0 0 0 0 127 0" result="hardAlpha"/>
<feOffset/>
<feGaussianBlur stdDeviation="3.29156"/>
<feComposite in2="hardAlpha" operator="out"/>
<feColorMatrix type="matrix" values="0 0 0 0 0.0354167 0 0 0 0 0.105426 0 0 0 0 0.2125 0 0 0 0.07 0"/>
<feBlend mode="normal" in2="effect1_dropShadow_2209_1715" result="effect2_dropShadow_2209_1715"/>
<feBlend mode="normal" in="SourceGraphic" in2="effect2_dropShadow_2209_1715" result="shape"/>
</filter>
<filter id="filter6_dd_2209_1715" x="452.031" y="213.986" width="134.023" height="64.0003" filterUnits="userSpaceOnUse" color-interpolation-filters="sRGB">
<feFlood flood-opacity="0" result="BackgroundImageFix"/>
<feColorMatrix in="SourceAlpha" type="matrix" values="0 0 0 0 0 0 0 0 0 0 0 0 0 0 0 0 0 0 127 0" result="hardAlpha"/>
<feOffset dx="4.70223" dy="4.70223"/>
<feGaussianBlur stdDeviation="4.70223"/>
<feColorMatrix type="matrix" values="0 0 0 0 0 0 0 0 0 0.296699 0 0 0 0 0.858629 0 0 0 0.08 0"/>
<feBlend mode="normal" in2="BackgroundImageFix" result="effect1_dropShadow_2209_1715"/>
<feColorMatrix in="SourceAlpha" type="matrix" values="0 0 0 0 0 0 0 0 0 0 0 0 0 0 0 0 0 0 127 0" result="hardAlpha"/>
<feOffset/>
<feGaussianBlur stdDeviation="3.29156"/>
<feComposite in2="hardAlpha" operator="out"/>
<feColorMatrix type="matrix" values="0 0 0 0 0.0354167 0 0 0 0 0.105426 0 0 0 0 0.2125 0 0 0 0.07 0"/>
<feBlend mode="normal" in2="effect1_dropShadow_2209_1715" result="effect2_dropShadow_2209_1715"/>
<feBlend mode="normal" in="SourceGraphic" in2="effect2_dropShadow_2209_1715" result="shape"/>
</filter>
<filter id="filter7_dd_2209_1715" x="452.031" y="290.458" width="134.023" height="64.0003" filterUnits="userSpaceOnUse" color-interpolation-filters="sRGB">
<feFlood flood-opacity="0" result="BackgroundImageFix"/>
<feColorMatrix in="SourceAlpha" type="matrix" values="0 0 0 0 0 0 0 0 0 0 0 0 0 0 0 0 0 0 127 0" result="hardAlpha"/>
<feOffset dx="4.70223" dy="4.70223"/>
<feGaussianBlur stdDeviation="4.70223"/>
<feColorMatrix type="matrix" values="0 0 0 0 0 0 0 0 0 0.296699 0 0 0 0 0.858629 0 0 0 0.08 0"/>
<feBlend mode="normal" in2="BackgroundImageFix" result="effect1_dropShadow_2209_1715"/>
<feColorMatrix in="SourceAlpha" type="matrix" values="0 0 0 0 0 0 0 0 0 0 0 0 0 0 0 0 0 0 127 0" result="hardAlpha"/>
<feOffset/>
<feGaussianBlur stdDeviation="3.29156"/>
<feComposite in2="hardAlpha" operator="out"/>
<feColorMatrix type="matrix" values="0 0 0 0 0.0354167 0 0 0 0 0.105426 0 0 0 0 0.2125 0 0 0 0.07 0"/>
<feBlend mode="normal" in2="effect1_dropShadow_2209_1715" result="effect2_dropShadow_2209_1715"/>
<feBlend mode="normal" in="SourceGraphic" in2="effect2_dropShadow_2209_1715" result="shape"/>
</filter>
<linearGradient id="paint0_linear_2209_1715" x1="323.02" y1="127.605" x2="310.006" y2="222.513" gradientUnits="userSpaceOnUse">
<stop stop-color="#0A479C"/>
<stop offset="1" stop-color="#091B36"/>
</linearGradient>
<linearGradient id="paint1_linear_2209_1715" x1="82.3604" y1="183.769" x2="100.23" y2="100.738" gradientUnits="userSpaceOnUse">
<stop stop-color="#3D7FFC"/>
<stop offset="1" stop-color="#15C1E6"/>
</linearGradient>
<linearGradient id="paint2_linear_2209_1715" x1="76.95" y1="224.989" x2="88.1603" y2="296.143" gradientUnits="userSpaceOnUse">
<stop stop-color="#0E2446"/>
<stop offset="1" stop-color="#003C97"/>
</linearGradient>
<linearGradient id="paint3_linear_2209_1715" x1="181" y1="222" x2="181" y2="262" gradientUnits="userSpaceOnUse">
<stop stop-color="white" stop-opacity="0.09"/>
<stop offset="1" stop-color="#9D97F4"/>
</linearGradient>
<linearGradient id="paint4_linear_2209_1715" x1="181.575" y1="279.3" x2="142.578" y2="178.954" gradientUnits="userSpaceOnUse">
<stop stop-color="#3D7FFC"/>
<stop offset="1" stop-color="#15C1E6"/>
</linearGradient>
<linearGradient id="paint5_linear_2209_1715" x1="323.02" y1="280.605" x2="310.006" y2="375.513" gradientUnits="userSpaceOnUse">
<stop stop-color="#0A479C"/>
<stop offset="1" stop-color="#091B36"/>
</linearGradient>
<linearGradient id="paint6_linear_2209_1715" x1="82.3604" y1="336.769" x2="100.23" y2="253.738" gradientUnits="userSpaceOnUse">
<stop stop-color="#3D7FFC"/>
<stop offset="1" stop-color="#15C1E6"/>
</linearGradient>
<linearGradient id="paint7_linear_2209_1715" x1="181.575" y1="203.244" x2="142.578" y2="102.897" gradientUnits="userSpaceOnUse">
<stop stop-color="#3D7FFC"/>
<stop offset="1" stop-color="#15C1E6"/>
</linearGradient>
<linearGradient id="paint8_linear_2209_1715" x1="181.575" y1="132.3" x2="142.578" y2="31.9535" gradientUnits="userSpaceOnUse">
<stop stop-color="#3D7FFC"/>
<stop offset="1" stop-color="#15C1E6"/>
</linearGradient>
<linearGradient id="paint9_linear_2209_1715" x1="181.575" y1="355.266" x2="142.578" y2="254.92" gradientUnits="userSpaceOnUse">
<stop stop-color="#3D7FFC"/>
<stop offset="1" stop-color="#15C1E6"/>
</linearGradient>
<linearGradient id="paint10_linear_2209_1715" x1="577.1" y1="128.283" x2="549.954" y2="215.434" gradientUnits="userSpaceOnUse">
<stop stop-color="#0A479C"/>
<stop offset="1" stop-color="#091B36"/>
</linearGradient>
<linearGradient id="paint11_linear_2209_1715" x1="472.345" y1="183.816" x2="506.239" y2="114.486" gradientUnits="userSpaceOnUse">
<stop stop-color="#3D7FFC"/>
<stop offset="1" stop-color="#15C1E6"/>
</linearGradient>
<linearGradient id="paint12_linear_2209_1715" x1="577.1" y1="204.755" x2="549.954" y2="291.906" gradientUnits="userSpaceOnUse">
<stop stop-color="#0A479C"/>
<stop offset="1" stop-color="#091B36"/>
</linearGradient>
<linearGradient id="paint13_linear_2209_1715" x1="472.345" y1="260.288" x2="506.239" y2="190.959" gradientUnits="userSpaceOnUse">
<stop stop-color="#3D7FFC"/>
<stop offset="1" stop-color="#15C1E6"/>
</linearGradient>
<linearGradient id="paint14_linear_2209_1715" x1="605.428" y1="147.591" x2="629.323" y2="212.729" gradientUnits="userSpaceOnUse">
<stop stop-color="#0E2446"/>
<stop offset="1" stop-color="#003C97"/>
</linearGradient>
<linearGradient id="paint15_linear_2209_1715" x1="650.719" y1="144.562" x2="650.719" y2="185.101" gradientUnits="userSpaceOnUse">
<stop stop-color="white" stop-opacity="0.09"/>
<stop offset="1" stop-color="#9D97F4"/>
</linearGradient>
<linearGradient id="paint16_linear_2209_1715" x1="605.428" y1="224.984" x2="629.323" y2="290.123" gradientUnits="userSpaceOnUse">
<stop stop-color="#0E2446"/>
<stop offset="1" stop-color="#003C97"/>
</linearGradient>
<linearGradient id="paint17_linear_2209_1715" x1="650.719" y1="221.955" x2="650.719" y2="262.494" gradientUnits="userSpaceOnUse">
<stop stop-color="white" stop-opacity="0.09"/>
<stop offset="1" stop-color="#9D97F4"/>
</linearGradient>
<linearGradient id="paint18_linear_2209_1715" x1="577.1" y1="281.227" x2="549.954" y2="368.378" gradientUnits="userSpaceOnUse">
<stop stop-color="#0A479C"/>
<stop offset="1" stop-color="#091B36"/>
</linearGradient>
<linearGradient id="paint19_linear_2209_1715" x1="472.345" y1="336.76" x2="506.239" y2="267.43" gradientUnits="userSpaceOnUse">
<stop stop-color="#3D7FFC"/>
<stop offset="1" stop-color="#15C1E6"/>
</linearGradient>
<linearGradient id="paint20_linear_2209_1715" x1="605.428" y1="300.535" x2="629.323" y2="365.673" gradientUnits="userSpaceOnUse">
<stop stop-color="#0E2446"/>
<stop offset="1" stop-color="#003C97"/>
</linearGradient>
<linearGradient id="paint21_linear_2209_1715" x1="650.719" y1="297.506" x2="650.719" y2="338.045" gradientUnits="userSpaceOnUse">
<stop stop-color="white" stop-opacity="0.09"/>
<stop offset="1" stop-color="#9D97F4"/>
</linearGradient>
<linearGradient id="paint22_linear_2209_1715" x1="515.575" y1="203.244" x2="476.578" y2="102.897" gradientUnits="userSpaceOnUse">
<stop stop-color="#3D7FFC"/>
<stop offset="1" stop-color="#15C1E6"/>
</linearGradient>
<linearGradient id="paint23_linear_2209_1715" x1="651.012" y1="202.322" x2="612.015" y2="101.976" gradientUnits="userSpaceOnUse">
<stop stop-color="#3D7FFC"/>
<stop offset="1" stop-color="#15C1E6"/>
</linearGradient>
<linearGradient id="paint24_linear_2209_1715" x1="515.575" y1="132.3" x2="476.578" y2="31.9535" gradientUnits="userSpaceOnUse">
<stop stop-color="#3D7FFC"/>
<stop offset="1" stop-color="#15C1E6"/>
</linearGradient>
<linearGradient id="paint25_linear_2209_1715" x1="651.012" y1="132.3" x2="612.015" y2="31.9535" gradientUnits="userSpaceOnUse">
<stop stop-color="#3D7FFC"/>
<stop offset="1" stop-color="#15C1E6"/>
</linearGradient>
<linearGradient id="paint26_linear_2209_1715" x1="515.575" y1="280.637" x2="476.578" y2="180.29" gradientUnits="userSpaceOnUse">
<stop stop-color="#3D7FFC"/>
<stop offset="1" stop-color="#15C1E6"/>
</linearGradient>
<linearGradient id="paint27_linear_2209_1715" x1="651.012" y1="278.794" x2="612.015" y2="178.448" gradientUnits="userSpaceOnUse">
<stop stop-color="#3D7FFC"/>
<stop offset="1" stop-color="#15C1E6"/>
</linearGradient>
<linearGradient id="paint28_linear_2209_1715" x1="515.575" y1="355.266" x2="476.578" y2="254.92" gradientUnits="userSpaceOnUse">
<stop stop-color="#3D7FFC"/>
<stop offset="1" stop-color="#15C1E6"/>
</linearGradient>
<linearGradient id="paint29_linear_2209_1715" x1="651.012" y1="354.345" x2="612.015" y2="253.998" gradientUnits="userSpaceOnUse">
<stop stop-color="#3D7FFC"/>
<stop offset="1" stop-color="#15C1E6"/>
</linearGradient>
<clipPath id="clip0_2209_1715">
<rect width="780" height="400" fill="white"/>
</clipPath>
</defs>
</svg>
